/* XPM */
static char *result[] = {
/* columns rows colors chars-per-pixel */
"32 32 76 1 ",
"  c #ADC867",
". c #AEC966",
"X c #AEC967",
"o c #AFCA68",
"O c #AFCB68",
"+ c #B0CA68",
"@ c #B1CB69",
"# c #B2CB69",
"$ c #B2CC69",
"% c #B3CC69",
"& c #B3CC6A",
"* c #B4CC6A",
"= c #B5CD6A",
"- c #B4CF6B",
"; c #B7CF6A",
": c #B6CE6B",
"> c #B7CE6B",
", c #B7CF6C",
"< c #B8CE6C",
"1 c #B8CF6C",
"2 c #B9D06D",
"3 c #BAD06D",
"4 c #BBD06D",
"5 c #BAD16D",
"6 c #BBD16D",
"7 c #BCD26E",
"8 c #BED36E",
"9 c #BED36F",
"0 c #BFD36F",
"q c #C0D470",
"w c #C1D470",
"e c #C0D570",
"r c #C1D570",
"t c #C1D471",
"y c #C0D571",
"u c #C1D571",
"i c #C4D774",
"p c #C4D775",
"a c #C6D876",
"s c #C6D877",
"d c #C6D878",
"f c #C7D979",
"g c #C8D97A",
"h c #C9DA7B",
"j c #C9DA7C",
"k c #CADA7D",
"l c #CBDB7E",
"z c #CADB7F",
"x c #CBDB7F",
"c c #CCDC80",
"v c #CDDC80",
"b c #CCDD80",
"n c #CDDC81",
"m c #CDDD82",
"M c #CFDD83",
"N c #CEDD85",
"B c #CFDE84",
"V c #D0DE86",
"C c #D1DF87",
"Z c #D0DF88",
"A c #D1DF88",
"S c #D2E089",
"D c #D3E08A",
"F c #D3E18A",
"G c #D4E18C",
"H c #D5E28E",
"J c #D6E28E",
"K c #D7E290",
"L c #D7E390",
"P c #D7E391",
"I c #D9E494",
"U c #DBE596",
"Y c #DBE597",
"T c #DDE79A",
"R c #DEE79A",
"E c #E0E89E",
/* pixels */
"rruwrrwrwrerwrrwrrrrrwrrrurrrwrr",
"rreurrerrurrerrrrrrrwerrrrrewrrr",
"rrrryrrrrrr5.rrrrrrurrwrr,@5Xrre",
"rrrrrrrrer2O7rrrrrrwrrrre0-o7rrr",
"rrrtrerrwr, rrrurrrrererrw06rrrw",
"rrr%7urwrr83eerrrrrrrrrrurrwrerr",
"rrr1#6rrurrrwrrrryerrrrurrrrrerr",
"errr ,rrr6>rrrrrwrrrrrrrrwrrrerr",
"reur>7er6&;errrrruwrrrrrrrwrurue",
"rrrrrrrr*+rrrrrrrrr1937rrrrrrrer",
"rrrrrrrr<:rrrrrrrrr%=#4wwrrrurrr",
"rerrrrrrerrrrrurrwrr$3errwrrrrre",
"urrrrrerrrrrrrrrrwwrrrrrrwrrrrrr",
"ererrwrrrrrrrrurrerrrrrrrrrtrrrr",
"wrrrrrrrrrrrrrwrrrrrrerrrrwrrrrr",
"rurrrrrrerrrrrerrrrrwrrrurwwrrur",
"eerrruwrrrrrrrrrrrrrrurrrrrrerrr",
"rrrurrrrrrrurrrerrrrwrrrrwerrrre",
"erwrrrrerrrwrrrrrrrrrrurrrwrrrrr",
"rrrwuerrrrrrrrryrrurrrrrrrrkIsTw",
"rrrrrrrerrrurrrrerrrrrrwrrrpVUxr",
"rwrrerCmrrwwurrrerrrrrwurwrriner",
"rrurrCGhrrrrurrrwrrrrrrrrrrrrurr",
"rrFswYZerrrreryrrrrrrrerrrwwrrre",
"wwDGdYArrrrrrwrrrerrrrrrrrrrrrru",
"errEcClrrgcurrewrrwrerreeerrrrrr",
"qreEcrrurbLzrrrrrrurxajfrrrrrrrr",
"rrrPjrrrruBRrrrrrrrrJSKNrrrurrrr",
"rrrrrwruerBRrrrrrrrurHMurrurerrr",
"rrrrrrrrrrvIerrryerrwrrruwrrrrrr",
"rrrrwrrrrrurrrrrrrerrerrrrrrrrrr",
"rrwrrrrrrurrrwrrrwrrwrrrwrurrerr"
};
