/* XPM */
static char *result[] = {
/* columns rows colors chars-per-pixel */
"27 24 119 2 ",
"   c #844555",
".  c #824758",
"X  c #844A5B",
"o  c #86515A",
"O  c #89535C",
"+  c #8C5A5E",
"@  c #975D56",
"#  c #9A724E",
"$  c #9A6356",
"%  c #9F7252",
"&  c #9E7B57",
"*  c #9E7B5E",
"=  c #A46C57",
"-  c #A56E58",
";  c #A67157",
":  c #A77358",
">  c #A97659",
",  c #A27E5E",
"<  c #AB7A59",
"1  c #8E4F60",
"2  c #8F5760",
"3  c #925A63",
"4  c #985C67",
"5  c #956561",
"6  c #956D63",
"7  c #9D6A66",
"8  c #977162",
"9  c #9B7262",
"0  c #B09441",
"q  c #B09449",
"w  c #AF8557",
"e  c #A4835B",
"r  c #AE8359",
"t  c #B58D5C",
"y  c #B09750",
"u  c #B4915E",
"i  c #B8935E",
"p  c #BCA74A",
"a  c #BBA353",
"s  c #BCA85C",
"d  c #A48460",
"f  c #AB8D62",
"g  c #AF9262",
"h  c #B59566",
"j  c #B69867",
"k  c #BF9F60",
"l  c #BB956B",
"z  c #B59D6A",
"x  c #BB8D76",
"c  c #B8A167",
"v  c #B9A269",
"b  c #B9A77A",
"n  c #BFAD79",
"m  c #C1AA57",
"M  c #C0A75A",
"N  c #C0A85A",
"B  c #C3B054",
"V  c #C9B65A",
"C  c #C08F6B",
"Z  c #C09267",
"A  c #C1946A",
"S  c #C59C6C",
"D  c #C79E71",
"F  c #C89E71",
"G  c #C59F7D",
"H  c #C1A363",
"J  c #C7AD63",
"K  c #C0A66A",
"L  c #CAA56E",
"P  c #C0A86B",
"I  c #CCAB6E",
"U  c #CCB665",
"Y  c #CCB863",
"T  c #D2BF66",
"R  c #D2BF69",
"E  c #C7A07E",
"W  c #CDA37B",
"Q  c #D1AA7C",
"!  c #CFBC71",
"~  c #D3C161",
"^  c #D6C36B",
"/  c #D8C569",
"(  c #DBCB6B",
")  c #CFC471",
"_  c #D7C173",
"`  c #DAC571",
"'  c #DCCA71",
"]  c #DFD073",
"[  c #E2D56D",
"{  c #E4D776",
"}  c #E6DB75",
"|  c #E8DD76",
" . c #E7DE7A",
".. c #E8DF78",
"X. c #EAE074",
"o. c #EBE279",
"O. c #F0EA7A",
"+. c #C9A380",
"@. c #D6B283",
"#. c #DDBA8B",
"$. c #E1BE8E",
"%. c #D6CF8F",
"&. c #D7D08E",
"*. c #DED98B",
"=. c #DBD590",
"-. c #DFDA91",
";. c #E3DD89",
":. c #E2C090",
">. c #EDE780",
",. c #EFE981",
"<. c #EEE98D",
"1. c #F0EA82",
"2. c #E9E595",
"3. c #F2EE96",
"4. c #F4F49E",
"5. c #F7F89E",
"6. c #F9FA9F",
"7. c #F9FAA1",
"8. c None",
/* pixels */
"8.8.8.o 4 4 o 8.8.8.8.8.8.8.8.8.8.8.8.8.o 4 4 o 8.8.8.",
"8.8.8.* h h d 8.8.8.8.8.8.8.8.8.8.8.8.8.d h h , 8.8.8.",
"8.8.7 K / / H 9 + 5 5 5 5 5 5 5 5 5 2 ; K / / K 7 8.8.",
". g ! ' } X.` l x +.G G G G G G +.+.x l / X.} ' ! g . ",
"2 K o.o.o...( F G #.#.$.$.$.$.#.#.#.G L ` ..X.O.o.v 1 ",
"1 K o.O.| _ L F F Q #.$.$.$.$.$.#.Q F S L _ ..O.o.P 1 ",
"X c  .O.{ I l A A S Q @.@.@.@.@.Q S S A C I { O...c X ",
"X v | O.{ I C A S S S F F F F F F A S A A I { O...v X ",
"X v ..O.} I A l A A A Z Z Z Z Z A A A A A I { O.} c X ",
"X v o.O.} I A S S S S S S L S S S K F S S I } O.o.v X ",
"  n 3.1...( ' ' ' ' ' ' ' ' ' ' ' ' ' ' ` ' ..<.3.n   ",
". b 2.<.>.1.,.,.1.1.1.1.1.O.1.1.,.,.,.,.1.,.O.<.2.b   ",
"+ & s ;.7.7.6.7.4.7.7.7.4.4.4.5.5.7.6.7.6.6.4.2.s & + ",
"2 # 0 ) *.=.&.&.&.%.%.-.3.3.2.=.%.&.&.&.&.&.*.^ 0 # + ",
"+ e a p y 9 6 8 8 6 $ z  . .R f 5 6 8 6 6 * y p a e + ",
"+ e a p q % @ $ $ @ @ h ( [ R r @ $ $ $ $ % q p a e + ",
"+ e s B p w : > < > : t U R U t > > < > > r a m s e + ",
"o u Y V a r > < < < < r t i t r < < < < < r a V Y u o ",
"2 j ^ ~ N r - : : : : : - = - ; : : : : = r N ~ ^ h 3 ",
"3 h ^ ( U t : > < < < > > > > < < < < > : t Y ( ^ h 3 ",
"o , K ^ ^ J i M H M S M H H H H M H s S k J ^ R K , o ",
"8.8.7 K ^ ^ R ^ R T Y ^ T T R R R T T R T ^ ^ H 7 8.8.",
"8.8.8.e h h g g h g f h h f g g f h g g g h h d 8.8.8.",
"8.8.8.o 3 2 o O O o o O o o O O o o O O o 2 3 o 8.8.8."
};
