/* XPM */
static char *result[] = {
/* columns rows colors chars-per-pixel */
"32 25 155 2 ",
"   c #6E153E",
".  c #73263E",
"X  c #743039",
"o  c #7C3B43",
"O  c #672F54",
"+  c #713653",
"@  c #723953",
"#  c #7F4D4C",
"$  c #6F445C",
"%  c #7B4451",
"&  c #7D4C5D",
"*  c #7B5765",
"=  c #7F5963",
"-  c #82454C",
";  c #814C4C",
":  c #81524D",
">  c #814C54",
",  c #814E5B",
"<  c #855552",
"1  c #8C5454",
"2  c #865851",
"3  c #8D5955",
"4  c #875658",
"5  c #885559",
"6  c #8D5D5B",
"7  c #935D5D",
"8  c #92635D",
"9  c #965F61",
"0  c #946561",
"q  c #9D6662",
"w  c #956B65",
"e  c #9A6C64",
"r  c #9C7265",
"t  c #9F7866",
"y  c #9C736B",
"u  c #A06F67",
"i  c #A16C68",
"p  c #A4746A",
"a  c #A37B6B",
"s  c #AD7E6D",
"d  c #A47772",
"f  c #A47A70",
"g  c #A87975",
"h  c #AB836D",
"j  c #B2866F",
"k  c #B28A6D",
"l  c #A98576",
"z  c #A78A78",
"x  c #AC8A7B",
"c  c #B28672",
"v  c #B68E73",
"b  c #BA8E76",
"n  c #B3837C",
"m  c #B8867F",
"M  c #BD8F79",
"N  c #AF907F",
"B  c #B79175",
"V  c #BE9576",
"C  c #BF9479",
"Z  c #BE9978",
"A  c #C19775",
"S  c #C29C79",
"D  c #C99F7D",
"F  c #C6A17E",
"G  c #C9A37E",
"H  c #D7B07C",
"J  c #D9B17E",
"K  c #AB8F80",
"L  c #B88780",
"P  c #BA8982",
"I  c #AE9283",
"U  c #B29583",
"Y  c #BA9583",
"T  c #B39884",
"R  c #BB9B83",
"E  c #BC9D8B",
"W  c #BCA28D",
"Q  c #C48F88",
"!  c #C3948C",
"~  c #CA958F",
"^  c #C39D8D",
"/  c #CB9692",
"(  c #CC9A93",
")  c #D19595",
"_  c #DF9F9F",
"`  c #CCA381",
"'  c #D1A783",
"]  c #D6AF87",
"[  c #D7B387",
"{  c #DAB584",
"}  c #DDB887",
"|  c #D7B68D",
" . c #DAB788",
".. c #DDBA8B",
"X. c #C5AC95",
"o. c #CDAB98",
"O. c #DDA49F",
"+. c #CBB39B",
"@. c #CEB89E",
"#. c #D3B595",
"$. c #DFBF92",
"%. c #D0B99F",
"&. c #E1BE8D",
"*. c #DEA2A0",
"=. c #D2BAA1",
"-. c #D8BAA7",
";. c #E1A4A2",
":. c #E3ACA5",
">. c #E7AFAA",
",. c #E6B3AA",
"<. c #EAB3AC",
"1. c #E4BCAC",
"2. c #EABAAE",
"3. c #EBBBB0",
"4. c #DBC49E",
"5. c #E3C18F",
"6. c #E3C393",
"7. c #E3C69B",
"8. c #E5C89E",
"9. c #D4C1A7",
"0. c #D5C4A9",
"q. c #D8C6AA",
"w. c #D5C9AC",
"e. c #DBCAAC",
"r. c #DFD1B4",
"t. c #E6CDA3",
"y. c #E4CFAB",
"u. c #EBD1A5",
"i. c #E6D3AF",
"p. c #E9D3AC",
"a. c #ECC3B3",
"s. c #E0CFB0",
"d. c #EDCAB6",
"f. c #EECFB8",
"g. c #F0CBB8",
"h. c #E9D4B3",
"j. c #EEDAB4",
"k. c #EFD5BA",
"l. c #E7D8B9",
"z. c #EDDEBC",
"x. c #F0D7BB",
"c. c #F0DEBD",
"v. c #EEE0BE",
"b. c #F1E1BE",
"n. c #F9D5C0",
"m. c #F6DCC0",
"M. c #F3E5C3",
"N. c #F8E5C6",
"B. c #F5E9C6",
"V. c #F8EAC6",
"C. c #F6EAC8",
"Z. c #F9EDC9",
"A. c #FEF3CE",
"S. c #FEF7D0",
"D. c None",
/* pixels */
"D.D.D.D.D.D.D.D.D.D.D.D.D.D.D.D.D.D.1 0 D.D.D.q - D.D.D.D.D.D.D.",
"D.D.D.D.D.D.D.D.D.D.D.D.D.D.D.D.D.l %.e D.D.D.Y @.8 D.D.D.D.D.D.",
"D.D.D.D.D.D.D.D.D.D.D.D.D.D.D.D.D.E M.0 D.D.  W z.; D.D.D.D.D.D.",
"D.D.D.D.D.D.D.D.D.D.D.D.D.r f D.D.E M.e e e 3 W M.e D.D.D.f e D.",
"D.D.D.D.D.D.D.D.D.D.D.D.w @.d.U X l t.S D ` A #.M.@.e D.W h.X.1 ",
"D.D.D.D.D.D.D.D.D.D.D.D.p M.A.q.x R } ..&...} 8.M.V.X.7 0.S.z.9 ",
"D.D.D.D.D.D.D.8 i u u w e M.Z.M.c.p. .......} 8.N.C.M.l =.S.h.7 ",
"D.D.D.D.D.9 5 Z ' G #.=.< a.d.N.V.t.} &.5. .7.j.M.C.S.z ! x.1.6 ",
"D.D.D.D.D.M c  .6.&.t.M.U / ) -.4.H  .F S | j.V.M.q.w.W E *./ 6 ",
"D.D.D.D.h .. ... .} 8.M.z.t 8 7 B 5.[ * O 0.V.M.l.* $ r.+.7 0 D.",
"D.D.D.D.b &...{ H 8.c.M.M.e.q.q.s.j.i.w.=.v.V.C.M.w.0.B.%.o D.D.",
"D.D.D.% j } { 8.t.j.M.M.C.C.b.b.B.V.M.M.M.m.x.x.k.k.k.m.o.o D.D.",
"D.D.p r h 6.6.j.z.M.C.M.c.b.B.C.b.z.C.C.M.d.<.1.3.a.3.a.( # D.D.",
"D.D.A b z j.h.M.C.M.M.z.t.8.b.C.e.X.B.M.k.2.;.;.<.>._ <.~ : D.D.",
"D.a ] k U Z.C.M.M.M.b.u.J H y.M.q.N e.B.2.<.:.;.<.2.*.<.( # D.D.",
"0 [ B - U V.M.M.M.M.j. .....} p.C.s.e v.2.:.,.,.,.<.,.2.! ; D.D.",
"i M e o E Z.M.C.C.M.b.p.J J u.b.B.b.w.N d g n P L L L Q d D.D.D.",
"0 9 D.D.R j.p.h.u.b.Z.V.u.y.M.C.M.B.p.k k r < < 2 2 < 8 D.D.D.D.",
"D.D.D.D.b &. .....u.b.b.b.v.b.b.b.j... ...b > D.D.D.D.D.D.D.D.D.",
"D.D.D.D.A &.}  .{ 4.8.7.8.7.7.7.8.6.....5.V D.D.D.D.D.D.D.D.D.D.",
"D.D.D.D.a G  .&.G A G D V  .} G S F S  .5.B , D.D.D.D.D.D.D.D.D.",
"D.D.D.D.D.s ..6.k 8 e 8 e  .5.V 6 8 p ..6.A , D.D.D.D.D.D.D.D.D.",
"D.D.D.D.D.e  .&.h @ D.D.6 [ &.v @ D.0  .&.v & D.D.D.D.D.D.D.D.D.",
"D.D.D.D.D.w S G a D.D.D.0 Z ` h D.D.w Z D a D.D.D.D.D.D.D.D.D.D.",
"D.D.D.D.D.D.5 7 D.D.D.D.D.4 0 D.D.D.D.5 7 D.D.D.D.D.D.D.D.D.D.D."
};
