/* XPM */
static char *result[] = {
/* columns rows colors chars-per-pixel */
"32 25 160 2 ",
"   c #6E153E",
".  c #73263E",
"X  c #743039",
"o  c #540047",
"O  c #7C3B43",
"+  c #6E3B58",
"@  c #713653",
"#  c #723953",
"$  c #7F4D4C",
"%  c #7B4451",
"&  c #7D4C5D",
"*  c #7E515B",
"=  c #744B60",
"-  c #82454C",
";  c #814C4C",
":  c #81524D",
">  c #814C54",
",  c #814E5B",
"<  c #855552",
"1  c #8C5454",
"2  c #865851",
"3  c #8D5955",
"4  c #875658",
"5  c #885559",
"6  c #8D5D5B",
"7  c #935D5D",
"8  c #92635D",
"9  c #965F61",
"0  c #946561",
"q  c #9D6662",
"w  c #956B65",
"e  c #9A6C64",
"r  c #9C7265",
"t  c #9F7866",
"y  c #9C736B",
"u  c #A06F67",
"i  c #A16C68",
"p  c #A4746A",
"a  c #A37B6B",
"s  c #AD7E6D",
"d  c #A47772",
"f  c #A47A70",
"g  c #A87975",
"h  c #AB836D",
"j  c #B2866F",
"k  c #B28A6D",
"l  c #A98576",
"z  c #AF8D77",
"x  c #A78A78",
"c  c #AC8A7B",
"v  c #B28672",
"b  c #B68E73",
"n  c #BA8E76",
"m  c #B3837C",
"M  c #B8867F",
"N  c #BD8F79",
"B  c #AF907F",
"V  c #B79175",
"C  c #BE9576",
"Z  c #BF9479",
"A  c #BE9978",
"S  c #C19775",
"D  c #C39C79",
"F  c #CA9F7C",
"G  c #C7A17E",
"H  c #C9A37D",
"J  c #D7B07C",
"K  c #D9B17E",
"L  c #AB8F80",
"P  c #B88780",
"I  c #BA8982",
"U  c #AE9283",
"Y  c #B29583",
"T  c #BA9583",
"R  c #B39884",
"E  c #BC9C83",
"W  c #BC9D8B",
"Q  c #BDA28E",
"!  c #B7A392",
"~  c #C48F88",
"^  c #C3938B",
"/  c #CA958F",
"(  c #C19E8B",
")  c #CB9692",
"_  c #C49C90",
"`  c #CC9A93",
"'  c #D19595",
"]  c #DF9F9F",
"[  c #CCA381",
"{  c #D1A783",
"}  c #D6AF87",
"|  c #D7B387",
" . c #DAB584",
".. c #DDB887",
"X. c #DAB788",
"o. c #DDBA8A",
"O. c #C6AC95",
"+. c #CDAB98",
"@. c #DDA49F",
"#. c #C4B097",
"$. c #CCB69C",
"%. c #CEB89F",
"&. c #D3B595",
"*. c #DFBF92",
"=. c #D0B99F",
"-. c #E1BE8D",
";. c #DEA2A0",
":. c #CFBFA7",
">. c #D2BAA1",
",. c #D8BAA7",
"<. c #E1A4A2",
"1. c #E3ACA5",
"2. c #E7AFAA",
"3. c #E6B3AA",
"4. c #EAB3AC",
"5. c #E4BCAC",
"6. c #E9B9AE",
"7. c #EBBBB0",
"8. c #DBC49E",
"9. c #E3C18F",
"0. c #E3C393",
"q. c #E3C69C",
"w. c #E5C99E",
"e. c #D7C1A6",
"r. c #D7C5A9",
"t. c #D8C5A9",
"y. c #D7CAAE",
"u. c #DCCAAC",
"i. c #E6CDA3",
"p. c #E4CFAB",
"a. c #EBD1A5",
"s. c #E6D3AF",
"d. c #E9D3AC",
"f. c #ECC2B2",
"g. c #E0CFB0",
"h. c #EECAB6",
"j. c #EECFB8",
"k. c #F0CBB8",
"l. c #E4D5B6",
"z. c #E9D4B4",
"x. c #EDDAB3",
"c. c #E6D7B8",
"v. c #EFD5BA",
"b. c #ECDDBB",
"n. c #F1DCB4",
"m. c #F0D7BC",
"M. c #F1DEBD",
"N. c #EEE0BE",
"B. c #F1E1BE",
"V. c #F9D5C0",
"C. c #F6DDC1",
"Z. c #F3E5C3",
"A. c #F8E5C6",
"S. c #F5E9C6",
"D. c #F8EBC6",
"F. c #F6EAC8",
"G. c #F9EDC9",
"H. c #FDF3CD",
"J. c #FDF7D0",
"K. c None",
/* pixels */
"K.K.K.K.K.K.K.K.K.K.K.K.K.K.K.K.K.K.1 0 K.K.K.q - K.K.K.K.K.K.K.",
"K.K.K.K.K.K.K.K.K.K.K.K.K.K.K.K.K.l =.e K.K.K.T %.8 K.K.K.K.K.K.",
"K.K.K.K.K.K.K.K.K.K.K.K.K.K.K.K.K.W Z.9 K.K.  Q b.; K.K.K.K.K.K.",
"K.K.K.K.K.K.K.K.K.K.K.K.K.r f K.K.[ Z.w e e 3 Q Z.e K.K.K.f e K.",
"K.K.K.K.K.K.K.K.K.K.K.K.w %.j.R X l i.D G [ S &.Z.%.e K.Q z.O.5 ",
"K.K.K.K.K.K.K.K.K.K.K.K.p Z.H.t.c W ..-.-.-...w.A.D.O.7 e.J.b.7 ",
"K.K.K.K.K.K.K.8 i u u w e C.D.Z.b.s. .o.o.o.o.w.Z.Z.Z.l =.H.c.7 ",
"K.K.K.K.K.9 5 A { H &.:.< f.h.A.D.i...o.z G q.n.C.! D.x _ m.5.7 ",
"K.K.K.K.K.n v o.-.-.i.C.B ` ' ,.e.J  .o.+ E n.G.l.o b.! ( <.) 6 ",
"K.K.K.K.l o.o.o.o. .w.S.N.y 8 7 C -.X.X.* e.S.Z.c.= b.G.#.7 0 K.",
"K.K.K.K.n -.o. .J w.b.Z.Z.u.r.r.s.x.x.x.r.b.D.D.Z.y.Z.H.$.O K.K.",
"K.K.K.% j .. .w.w.x.S.Z.S.S.Z.Z.Z.D.Z.Z.S.b.m.m.c.v.v.C.+.O K.K.",
"K.K.p r h 0.*.x.b.Z.Z.Z.B.Z.S.D.N.b.D.Z.A.h.3.6.7.7.6.7.` ; K.K.",
"K.K.S n x n.x.Z.F.Z.Z.b.w.w.M.Z.u.#.Z.S.m.6.<.<.4.2.<.4./ : K.K.",
"K.a } k U G.D.Z.Z.Z.Z.d. .J i.Z.r.B u.S.6.3.1.<.6.4.;.6.` $ K.K.",
"0 | V - Y D.Z.Z.Z.Z.x. .o.X...x.G.g.r N.6.3.3.3.3.3.3.6.^ ; K.K.",
"i N p . W G.S.Z.S.D.B.d. . .a.B.S.Z.r.L d g m I P P P ~ d K.K.K.",
"8 0 K.K.T x.s.x.d.M.G.S.i.i.Z.S.S.Z.s.k k r < < 2 2 < 8 K.K.K.K.",
"K.K.K.K.C -.o.o. .a.B.B.B.b.B.B.Z.x.o. .o.n > K.K.K.K.K.K.K.K.K.",
"K.K.K.K.Z -. .o. .0.w.q.w.w.q.q.w.0.o.o.9.C K.K.K.K.K.K.K.K.K.K.",
"K.K.K.K.a G o.o.H A G D A  .o.H A D G X.o.V , K.K.K.K.K.K.K.K.K.",
"K.K.K.K.K.s -.9.b 8 e 0 e X.9.C 7 8 p o.0.S , K.K.K.K.K.K.K.K.K.",
"K.K.K.K.K.e o.-.h # K.K.6 | -.b # K.0  .9.b & K.K.K.K.K.K.K.K.K.",
"K.K.K.K.K.w S G a K.K.K.8 A [ h K.K.w A G a K.K.K.K.K.K.K.K.K.K.",
"K.K.K.K.K.K.5 7 K.K.K.K.K.5 0 K.K.K.K.5 7 K.K.K.K.K.K.K.K.K.K.K."
};
