/* XPM */
static char *result[] = {
/* columns rows colors chars-per-pixel */
"20 32 166 2 ",
"   c #91564F",
".  c #91574F",
"X  c #8F5852",
"o  c #8F5954",
"O  c #855459",
"+  c #86555B",
"@  c #88575B",
"#  c #8B5C5B",
"$  c #8C5C5B",
"%  c #8B5D5C",
"&  c #8C5C5C",
"*  c #8C5D5C",
"=  c #8C5E5C",
"-  c #8C5F5D",
";  c #8D5F5D",
":  c #905750",
">  c #8E605D",
",  c #8E615D",
"<  c #9B6351",
"1  c #9D6B57",
"2  c #96675C",
"3  c #94675E",
"4  c #95685E",
"5  c #96695F",
"6  c #9E6D5A",
"7  c #9F6F5B",
"8  c #9B6B5C",
"9  c #9F705B",
"0  c #A3684A",
"q  c #A67254",
"w  c #A67456",
"e  c #A77557",
"r  c #A87455",
"t  c #AA7654",
"y  c #A97656",
"u  c #A97757",
"i  c #AA7857",
"p  c #A0705C",
"a  c #A1715C",
"s  c #A5755C",
"d  c #A5745E",
"f  c #A7755F",
"g  c #A87758",
"h  c #A8775C",
"j  c #A97858",
"k  c #A97859",
"l  c #AA7958",
"z  c #AA7859",
"x  c #AA7959",
"c  c #AB7A59",
"v  c #A9785A",
"b  c #AD7B58",
"n  c #AC7B59",
"m  c #AE7D58",
"M  c #AD7D5B",
"N  c #B37F59",
"B  c #926360",
"V  c #946361",
"C  c #9A6865",
"Z  c #9D6867",
"A  c #9D6A67",
"S  c #A06D65",
"D  c #A16F64",
"F  c #A57360",
"G  c #AB7D62",
"H  c #A97E64",
"J  c #A67668",
"K  c #A77768",
"L  c #C07E49",
"P  c #AE815F",
"I  c #B1805B",
"U  c #B3805A",
"Y  c #B3815A",
"T  c #B2805B",
"R  c #B3835E",
"E  c #BF8C5E",
"W  c #B18361",
"Q  c #B18461",
"!  c #B48661",
"~  c #B28665",
"^  c #B08567",
"/  c #B28767",
"(  c #B78960",
")  c #B78962",
"_  c #B78A62",
"`  c #BB8F69",
"'  c #BA886F",
"]  c #BA896F",
"[  c #BC906D",
"{  c #B99671",
"}  c #BA9C78",
"|  c #BCA37B",
" . c #C39667",
".. c #C2976A",
"X. c #C49869",
"o. c #C5986A",
"O. c #C3996C",
"+. c #C89C6B",
"@. c #CAA87A",
"#. c #CAAA7D",
"$. c #CAAA7E",
"%. c #959896",
"&. c #989B96",
"*. c #BAA88C",
"=. c #B9B293",
"-. c #899EA3",
";. c #8D9CA0",
":. c #8D9DA0",
">. c #86A2A8",
",. c #AAB2A5",
"<. c #C1A983",
"1. c #C1AF86",
"2. c #CEBF96",
"3. c #98C3BE",
"4. c #BBC7A1",
"5. c #B8CEAA",
"6. c #B8CFAB",
"7. c #ACDDBF",
"8. c #ACDEBF",
"9. c #ADDFBF",
"0. c #B2E1BD",
"q. c #B3E1BD",
"w. c #B1E0BE",
"e. c #B2E1BE",
"r. c #B2E2BE",
"t. c #B4E2BD",
"y. c #D1C49A",
"u. c #DBD3A5",
"i. c #DDD7AA",
"p. c #C3CCB2",
"a. c #CEDFBC",
"s. c #E3DAA8",
"d. c #D3E4BD",
"f. c #D3E5BD",
"g. c #D5E6BE",
"h. c #E7E6B4",
"j. c #E8E6B4",
"k. c #ECEBB7",
"l. c #EBEAB8",
"z. c #F1EDB5",
"x. c #F0EFB9",
"c. c #F2F1BA",
"v. c #F6F1B8",
"b. c #F6F2B8",
"n. c #F7F3B9",
"m. c #8ABDC1",
"M. c #8EC9C8",
"N. c #8FC9C8",
"B. c #8BCBCC",
"V. c #92C4C3",
"C. c #96CFC3",
"Z. c #90CEC5",
"A. c #97D3C3",
"S. c #97D4C3",
"D. c #9AD3C3",
"F. c #98D5C3",
"G. c #9BD4C3",
"H. c #99D4C4",
"J. c #99D4C5",
"K. c #A5DAC1",
"L. c #ABDDC0",
"P. c #AADEC1",
"I. c #AFE5C3",
"U. c #AFE5C4",
"Y. c #AFE6C4",
"T. c None",
/* pixels */
"T.T.T.# Z & T.T.T.T.T.T.T.T.& Z % T.T.T.",
"T.T.5 ^ [ H O + @ @ @ @ + O H [ ^ 5 T.T.",
"T.3 ] ..+.` J K K K K K K J ` +...' 4 T.",
"% / ..M j ! O.O.O.O.O.O.O.O.! j M ../ % ",
"V G ( j e M _ _ ) ) ) ) _ _ M e j ( G V ",
"> 6 i x u r q q q q q q q q r u x i 6 > ",
"> 7 n x u y y y y y y y y y y u x n 7 > ",
"> p t 0 <.y.2.2.2.2.2.2.2.2.y.<.0 t p > ",
"> 1 P } u.l.h.h.j.j.h.j.j.j.l.u.} P 1 > ",
"> < { i.k.c.x.x.x.x.x.x.x.x.c.k.i.{ < > ",
"= h @.s.z.n.b.b.b.b.v.b.b.b.n.z.s.@.h * ",
"% N $.p.a.g.f.d.f.f.d.f.f.f.g.a.p.#.U % ",
"$ W *.m.Z.F.S.A.S.S.S.S.S.S.F.Z.m.*.Q $ ",
"X %.3.C.K.9.8.8.8.8.7.8.8.8.9.K.C.3.%.X ",
". -.B.G.8.t.e.0.e.e.e.e.e.e.t.8.G.B.-.. ",
": ;.N.D.L.q.w.w.w.w.w.w.w.w.q.L.D.N.:.: ",
": ;.N.D.L.q.w.w.w.w.w.w.w.w.q.L.D.N.:.: ",
": ;.N.D.L.q.w.w.w.w.w.w.w.w.q.L.D.N.:.: ",
": ;.N.D.L.q.w.w.w.w.w.w.w.w.q.L.D.N.:.: ",
": ;.N.D.L.q.w.w.w.w.w.w.w.w.q.L.D.N.:.: ",
": ;.N.D.L.q.w.w.w.w.w.w.w.w.q.L.D.N.:.: ",
": ;.M.J.P.r.w.w.w.w.w.w.w.w.r.P.J.M.;.: ",
": ;.M.H.P.r.w.w.w.w.w.w.w.w.r.P.H.M.;.: ",
". >.V.=.1.4.Y.U.I.I.I.I.U.Y.4.1.=.V.>.  ",
"o &.,.E L | 6.6.5.5.5.5.6.6.| L E ,.&.o ",
"* ~  .x w R o.X.X.X.X.X.X.o.R w x  .~ * ",
"; s Y z g n T T I I I I I T n g z Y s ; ",
"> 6 i x c l u u u u u u u u l c x i 6 > ",
"> 9 n x k v k k k k k k k k v k x n 9 > ",
"C d m b F S D D D D D D D D S F b m d C ",
", 8 f a 2 T.- - - - - - - - T.2 a f 8 , ",
"T.> A B T.T.T.T.T.T.T.T.T.T.T.T.B A > T."
};
