/* XPM */
static char *result[] = {
/* columns rows colors chars-per-pixel */
"32 25 54 1 ",
"  c #A87657",
". c #A97758",
"X c #AA7758",
"o c #A97959",
"O c #AA7859",
"+ c #AA7959",
"@ c #AB7959",
"# c #AC7C5B",
"$ c #AE7C5B",
"% c #B07F5C",
"& c #B28259",
"* c #B3835F",
"= c #B5815F",
"- c #B3855F",
"; c #B78160",
": c #B78260",
"> c #B68961",
", c #B68962",
"< c #B78A62",
"1 c #B78B62",
"2 c #B88B62",
"3 c #B88C62",
"4 c #BB8D64",
"5 c #BB9065",
"6 c #BD9267",
"7 c #BE956E",
"8 c #C28C66",
"9 c #C19565",
"0 c #C29667",
"q c #C39168",
"w c #C6926A",
"e c #C29768",
"r c #C49469",
"t c #C6946A",
"y c #C2986A",
"u c #C3986A",
"i c #C3996B",
"p c #C49A6C",
"a c #C59B6D",
"s c #C69C6D",
"d c #C79D6D",
"f c #CE9E70",
"g c #CBA478",
"h c #D2A373",
"j c #CFAC80",
"k c #D7B991",
"l c #DDBF96",
"z c #E1C69C",
"x c #E8CFA6",
"c c #E9D0A7",
"v c #E9D1A8",
"b c #EBD3A9",
"n c #EDD5AC",
"m c None",
/* pixels */
"m&&&&mmmmmmmmmmmm&&&&mmmmmmmmmmm",
"m7777mmmmmmmmmmmm7777mmmmmmmmmmm",
",kkkk,mmmmmmmmmm,kkkk,mmmmmmmmmm",
"4cccc4mmmmmmmmmm4cccc4mmmmmmmmmm",
"rnbbnrmmmmmmmmmmrnbbnrmmmmmmmmmm",
"2vxxv2mmmmmmmmmm2vxxv2mmmmmmmmmm",
"-lvvl-mmmmmmmmmm-lvvl-mmmmmmmmmm",
"#gbbg#3dddddddd3#gbbg#3dddddddd3",
".9zz9.thhhhhhhht.9zz9.thhhhhhhht",
"OujjuO8wwwwwwww8OujjuO8wwwwwwww8",
"+p00p+.        .+p00p+.        .",
"+peep+mmmmmmmmmm+peep+mmmmmmmmmm",
"+pppp+mmmmmmmmmm+pppp+mmmmmmmmmm",
"+pppp+mmmmmmmmmm+pppp+mmmmmmmmmm",
"+pppp+1ssssssss1+pppp+1ssssssss1",
"+pppp+qffffffffq+pppp+qffffffffq",
"+appa+%********%+appa+%********%",
"+yppy+@XXXXXXXX@+yppy+@XXXXXXXX@",
"+5aa5+:;;;;;;;;:+5aa5+:;;;;;;;;:",
"+>ii>++++++++++++>ii>+++++++++++",
"=>66>=mmmmmmmmmm=>66>=mmmmmmmmmm",
"$<11<$mmmmmmmmmm$<11<$mmmmmmmmmm",
"o<>><ommmmmmmmmmo<>><ommmmmmmmmm",
"m<<<<mmmmmmmmmmmm<<<<mmmmmmmmmmm",
"m<<<<mmmmmmmmmmmm<<<<mmmmmmmmmmm"
};
