/* XPM */
static char *result[] = {
/* columns rows colors chars-per-pixel */
"27 25 125 2 ",
"   c #4A0052",
".  c #4E0B59",
"X  c #541254",
"o  c #511C56",
"O  c #531B58",
"+  c #552158",
"@  c #5C345A",
"#  c #7F3851",
"$  c #66455C",
"%  c #68475C",
"&  c #6B4B5B",
"*  c #71555C",
"=  c #765C5D",
"-  c #7F6256",
";  c #745D62",
":  c #776161",
">  c #804258",
",  c #8E4D5C",
"<  c #86525B",
"1  c #88535C",
"2  c #8D5C5F",
"3  c #85664C",
"4  c #86684F",
"5  c #976C49",
"6  c #97704F",
"7  c #856954",
"8  c #96615C",
"9  c #99665C",
"0  c #956C59",
"q  c #9A685C",
"w  c #8D7252",
"e  c #937A53",
"r  c #9E7B54",
"t  c #A46D57",
"y  c #A56F58",
"u  c #A67057",
"i  c #A87457",
"p  c #A17E53",
"a  c #A77458",
"s  c #A87759",
"d  c #A27E5B",
"f  c #AC7B59",
"g  c #8F5660",
"h  c #935B63",
"j  c #985D67",
"k  c #946063",
"l  c #9C6D63",
"z  c #A27266",
"x  c #A27963",
"c  c #A37468",
"v  c #A88935",
"b  c #A98C3E",
"n  c #B69D3F",
"m  c #9E854A",
"M  c #99825E",
"N  c #A48B48",
"B  c #AD9245",
"V  c #AC9048",
"C  c #B19745",
"Z  c #B69E43",
"A  c #B69E4C",
"S  c #A5845E",
"D  c #B48C5D",
"F  c #B59C51",
"G  c #BD9C5F",
"H  c #BBA54D",
"J  c #BBAA5C",
"K  c #978160",
"L  c #9C8660",
"P  c #A68560",
"I  c #AD8F62",
"U  c #A59061",
"Y  c #AE9062",
"T  c #B29663",
"R  c #B69966",
"E  c #BC9C62",
"W  c #BA9968",
"Q  c #B8A67D",
"!  c #BEA97A",
"~  c #C0AB52",
"^  c #C2AC5B",
"/  c #C9B559",
"(  c #C4AA65",
")  c #C4A969",
"_  c #C3B263",
"`  c #CEB766",
"'  c #CEB966",
"]  c #C4B76C",
"[  c #C5B96E",
"{  c #CDBA69",
"}  c #D2BF68",
"|  c #C0B472",
" . c #C6BA70",
".. c #D1BF72",
"X. c #D4C264",
"o. c #D5C269",
"O. c #D8C66A",
"+. c #DBCB6C",
"@. c #DFD36B",
"#. c #CFC370",
"$. c #D4C272",
"%. c #D8C976",
"&. c #DFD072",
"*. c #E2D56C",
"=. c #E3D773",
"-. c #E5D973",
";. c #E8DE76",
":. c #EAE176",
">. c #EFE67A",
",. c #F0E776",
"<. c #F0E779",
"1. c #F0E87A",
"2. c #CAC483",
"3. c #CECB8F",
"4. c #CFCD91",
"5. c #E6DC83",
"6. c #E5DF88",
"7. c #E1D895",
"8. c #F1EA83",
"9. c #F0ED8D",
"0. c #E9E694",
"q. c #F4F191",
"w. c #F7F79E",
"e. c #F8F9A0",
"r. c None",
/* pixels */
"r.r.r.< j j < r.r.r.r.r.r.r.r.r.r.r.r.r.< j j < r.r.r.",
"r.r.r.d R R S r.r.r.r.r.r.r.r.r.r.r.r.r.S W R d r.r.r.",
"r.r.c ) +.+.( x k l l l l l l l l l k x ) +.O.) z r.r.",
"# Q 7.5.*.*.&.$.$.$.$.$.$.$.$.$.$.$.$.$.&.-.=.=.%.R > ",
", ! 0.9.8.8.8.1.>.>.>.>.>.:.;.>.,.<.<.1.>.>.<.:.=.R g ",
"h S _ 6.w.w.q.1.,.1.1.>.>.=.+.;.1.1.<.<.>.1.<.@.~ S h ",
"2 5 v | 4.4.2. .] [ [ #.=.*.o.[ [ [ [ [ [ [ [ J b 6 g ",
"2 r B e : : = = = * * K { O.' K * * = = = = = e B N g ",
"2 p C 3 o   X + + O o & M U L * o O + + + . o 4 C M 2 ",
"2 p B w & % & & & & & & @ @ @ $ & & & & & & & w B m 2 ",
"2 p B w $ $ % & & & & & $ $ $ & & & & & & $ $ w C p g ",
"2 r B N 7 & $ % % % % % $ & $ $ $ & $ $ $ & 7 m B r g ",
"2 r B n N 7 @ % & & & & & & & & & & & $ $ - N n B r 2 ",
"2 p A Z B N m m m m m m m m m m m m m m m N b H A p 2 ",
"2 S ^ H C V V V B V B V B B B V V V V V B B C H ^ S 1 ",
"1 Y ' / F r 0 0 0 0 0 0 0 0 0 0 0 0 0 0 0 r A / ' Y 1 ",
"1 D } X.^ d 8 9 9 q q q q q 9 0 9 9 9 9 8 d ^ X.} Y 1 ",
"1 Y } +.` D y a s s s s s s s s s s s a y D ` +.} I 1 ",
"1 I } +.} D a s f f f f f s f f f s f f a D } O.} I 1 ",
"2 T o.+.` D t a i s s s s s s s s a s a y D ` +.o.T g ",
"g R o.+.` D t a s s s s s s s s f s s s y D ` O.o.R g ",
", S ) } } ( G G G E G G G G E E E G G G G ( } o.) S 1 ",
"r.r.c ) o.} } } X.#.X.o.X.o.o.X.} } ' } } X.o.) c r.r.",
"r.r.r.S W W T T T T Y T T Y T Y T T T T T W W S r.r.r.",
"r.r.r.< h g < 1 1 1 1 1 1 1 1 1 1 1 1 1 1 g h < r.r.r."
};
