/* XPM */
static char *result[] = {
/* columns rows colors chars-per-pixel */
"32 32 204 2 ",
"   c #BEB37F",
".  c #C9BE7C",
"X  c #CBC17F",
"o  c #F0E777",
"O  c #F1E876",
"+  c #52438F",
"@  c #53448E",
"#  c #544690",
"$  c #554690",
"%  c #554790",
"&  c #564790",
"*  c #564791",
"=  c #574991",
"-  c #584991",
";  c #584A90",
":  c #584A91",
">  c #594A91",
",  c #594B91",
"<  c #5B4D92",
"1  c #5C4E92",
"2  c #62548E",
"3  c #635594",
"4  c #74678B",
"5  c #7B6E8A",
"6  c #796D92",
"7  c #746999",
"8  c #766A9A",
"9  c #7A6E9A",
"0  c #7A6F9A",
"q  c #7B6F9A",
"w  c #7A6F9B",
"e  c #7A6F9C",
"r  c #7C719C",
"t  c #7C729C",
"y  c #7D729C",
"u  c #7E739C",
"i  c #7E739D",
"p  c #7E749D",
"a  c #7F749D",
"s  c #6F66A9",
"d  c #7568A2",
"f  c #756BA2",
"g  c #776AA3",
"h  c #786BA3",
"j  c #7A6EA5",
"k  c #7067A9",
"l  c #7068A9",
"z  c #7168A9",
"x  c #7168AA",
"c  c #7268AA",
"v  c #7269AB",
"b  c #736AAA",
"n  c #766CA8",
"m  c #7B70A1",
"M  c #7E73A6",
"N  c #7971AB",
"B  c #83778F",
"V  c #80759D",
"C  c #80769D",
"Z  c #8278A0",
"A  c #8379A2",
"S  c #8F8599",
"D  c #89809F",
"F  c #B2A888",
"G  c #8C84AA",
"H  c #8F86AB",
"J  c #8982AD",
"K  c #8A83AE",
"L  c #8C83AC",
"P  c #978EA4",
"I  c #978EAB",
"U  c #928BAF",
"Y  c #938CAF",
"T  c #958EAF",
"R  c #988EAB",
"E  c #9B90A4",
"W  c #9C95A6",
"Q  c #9E95A6",
"!  c #9486B1",
"~  c #928AB0",
"^  c #9488B0",
"/  c #948BB0",
"(  c #958EB0",
")  c #B0AAAC",
"_  c #B4AEAC",
"`  c #B5AFAD",
"'  c #B5AFAE",
"]  c #B6B0AD",
"[  c #B5B0AE",
"{  c #ACA7B3",
"}  c #B7B2B3",
"|  c #BCB8B6",
" . c #D5BDBF",
".. c #E7B0AA",
"X. c #CFC682",
"o. c #CDC8B4",
"O. c #CDC9B4",
"+. c #CDC9B5",
"@. c #CDCAB5",
"#. c #CECAB5",
"$. c #CFCAB5",
"%. c #CECBB5",
"&. c #CFCBB5",
"*. c #CFCCB5",
"=. c #D6CAB4",
"-. c #D0CCB5",
";. c #D0CCB6",
":. c #D0CDB6",
">. c #D0CDB7",
",. c #D4C2BE",
"<. c #D5C2BE",
"1. c #D1CCBF",
"2. c #D4CCBC",
"3. c #D5CDBC",
"4. c #D5D1B7",
"5. c #D6D2B7",
"6. c #D6D3B7",
"7. c #D3D0B9",
"8. c #D4D1BA",
"9. c #D4D1BB",
"0. c #D5D2BB",
"q. c #D5D3BB",
"w. c #D7D3BA",
"e. c #D7D4BB",
"r. c #D8D5B8",
"t. c #D8D6B8",
"y. c #D9D6B8",
"u. c #D8D5BC",
"i. c #DCD9B9",
"p. c #DDDBBC",
"a. c #DFDDBC",
"s. c #EAC2B0",
"d. c #EBC3B0",
"f. c #ECC4B1",
"g. c #EDC5B1",
"h. c #EEC5B1",
"j. c #E6C8B3",
"k. c #EDCFB4",
"l. c #EFD1B5",
"z. c #F1D4B6",
"x. c #E9E7BD",
"c. c #E9E8BD",
"v. c #EBEABE",
"b. c #ECEABE",
"n. c #EEECBE",
"m. c #EFEDBF",
"M. c #F0E3BB",
"N. c #F1E4BB",
"B. c #F1E7BC",
"V. c #F3E6BC",
"C. c #F3E9BD",
"Z. c #F6E9BD",
"A. c #F5EBBD",
"S. c #F7EABD",
"D. c #F2EEBF",
"F. c #F7EDBE",
"G. c #A89DC0",
"H. c #BFB5CD",
"J. c #C4BCC8",
"K. c #CCC4C9",
"L. c #E8E5C4",
"P. c #F6E6C3",
"I. c #F6E0C5",
"U. c #F7E6C4",
"Y. c #F5EFC1",
"T. c #F5EDC2",
"R. c #F1EEC9",
"E. c #F3F2C0",
"W. c #F3F3C0",
"Q. c #F6F0C1",
"!. c #F4F3C0",
"~. c #F5F2C1",
"^. c #F6F2C0",
"/. c #F6F0C2",
"(. c #F4F4C0",
"). c #F5F4C0",
"_. c #F5F5C0",
"`. c #F4F4C1",
"'. c #F5F4C1",
"]. c #F5F5C1",
"[. c #F6F5C1",
"{. c #F5F6C1",
"}. c #F6F6C0",
"|. c #F7F6C0",
" X c #F6F6C1",
".X c #F7F6C1",
"XX c #F7F7C1",
"oX c #F8F2C2",
"OX c #F8F5C1",
"+X c #F8F7C0",
"@X c #F8F7C1",
"#X c #FAF6C1",
"$X c #F8F7C2",
"%X c #F8F8C1",
"&X c #F9F9C1",
"*X c #F9F8C2",
"=X c #FAFAC2",
"-X c #FBFBC2",
";X c #F3F1CA",
":X c #F5F3CA",
">X c #E9E3DB",
",X c #EAE4DB",
"<X c #EBE6DB",
"1X c None",
/* pixels */
"1X1X1X1X1X1X1X1X1X1X1X1X1X1X= = = = = = 1X1X1X1X1X1X1X1X1X1X1X1X",
"1X1X1X1X1X1X1X1X1X1X1X1X1X1Xy V V C C t 1X1X1X1X1X1X1X1X1X1X1X1X",
"1X1X1X1X1X1X1X1X1X1X1X1X= y ] &.%.%.*.[ w + 1X1X1X1X1X1X1X1X1X1X",
"1X1X1X1X1X1X1X1X1X1X1X1X$ p &.#XF.Z.S.=.E w 1X1X1X1X1X1X1X1X1X1X",
"1X1X1X1X1X1X1X1X1X1X= $ # u &.F.z.g.h.j.=.[ t = 1X1X1X1X1X1X1X1X",
"1X1X1X1X1X1X1X1X1X1Xy u u W t.V.f.....h.S.*.C = 1X1X1X1X1X1X1X1X",
"1X1X1X1X1X1X1X1X= y ] &.$.r.v.N.d.....g.Z.%.C = 1X1X1X1X1X1X1X1X",
"1X1X1X1X1X1X1X1X= V &.=X*X X`.B.k.s.s.l.A.@.V = 1X1X1X1X1X1X1X1X",
"1X1X1X1X1X1X1X1X= V #.*X@X'.!.D.B.M.M.C.^.+.V = 1X1X1X1X1X1X1X1X",
"1X1X1X1X1X1X1X1X= V O..X'.E.E.E.W.W.W.{..XO.V = 1X1X1X1X1X1X1X1X",
"1X1X1X1X1X1X1X1X= V O..X'.E.E.E.W.W.W.]..XO.V = 1X1X1X1X1X1X1X1X",
"1X1X1X1X1X1X1X1X& u o.XX.X'.!.E.E.E.E.'..X+.V - 1X1X1X1X1X1X1X1X",
"1X1X1X1X1X1X1 : % y O.@X$X[.!.E.E.E.E.'..X#.V : , 1 1X1X1X1X1X1X",
"1X1X1X1X1X1X< 3 7 Q y.b.6.4.x.!.!.E.E.'..X#.V : , 1 1X1X1X1X1X1X",
"1X1X1X1X1X1X> 8 ) i.m.5.P P 4.[.'.E.E.'..X+.V - 1X1X1X1X1X1X1X1X",
"1X1X1X1X1X1X= C -.-X*X4.P P 4.[.).E.E.'..X+.V - 1X1X1X1X1X1X1X1X",
"1X1X1X1X1X1X= V $.*X.Xx.4.4.c.(.!.E.E.'..X#.V : , 1 1X1X1X1X1X1X",
"1X1X1X1X1X1X= V #.*X.X[.@XOX/.T.T.Y.~.XX*X&.C : , 1 1X1X1X1X1X1X",
"1X1X1X1X1X1X= V &.=X%X X@XoXU.I.I.P.Q.%X=X&.V - 1X1X1X1X1X1X1X1X",
"1X1X1X1X1X1X= r ' >.8.0.q.3.<. . .,.2.7.:.] y = 1X1X1X1X1X1X1X1X",
"1X1X1X1X1X1X1X1Xe A H ( ( / ^ ! ! ^ ~ G Z q 1X1X1X1X1X1X1X1X1X1X",
"1X1X1X1X1X1X1X1X5 6 f b c z z z l N K L M d 1X1X1X1X1X1X1X1X1X1X",
"1X1X1X1X1X1X1X1X. F D v x z z k s J | 1.J.G.h ; 1X1X1X1X1X1X1X1X",
"1X1X1X1X1X1X1X1XO X.S n J ( T Y U { a.:X<XH.j ; 1X1X1X1X1X1X1X1X",
"1X1X1X1X1X1X1X1Xo X B m } u.e.9.9.p.n.;X,XH.j ; 1X1X1X1X1X1X1X1X",
"1X1X1X1X1X1X1X1Xo   4 i ;.-X&X}.}.|.|.L.K.G.g ; 1X1X1X1X1X1X1X1X",
"1X1X1X1X1X1X1X1X1X1X2 a -.-X%X_._.+X&Xw.R d 1X1X1X1X1X1X1X1X1X1X",
"1X1X1X1X1X1X1X1X1X1X* r ` w.L.R.R.L.w._ 9 @ 1X1X1X1X1X1X1X1X1X1X",
"1X1X1X1X1X1X1X1X1X1X1X1X0 I K.>X>XK.R 9 1X1X1X1X1X1X1X1X1X1X1X1X",
"1X1X1X1X1X1X1X1X1X1X1X1X@ d G.H.H.G.d @ 1X1X1X1X1X1X1X1X1X1X1X1X",
"1X1X1X1X1X1X1X1X1X1X1X1X1X1Xg j j g 1X1X1X1X1X1X1X1X1X1X1X1X1X1X",
"1X1X1X1X1X1X1X1X1X1X1X1X1X1X; ; ; ; 1X1X1X1X1X1X1X1X1X1X1X1X1X1X"
};
