/* XPM */
static char *result[] = {
/* columns rows colors chars-per-pixel */
"32 32 241 2 ",
"   c #EDE478",
".  c #52438E",
"X  c #54458F",
"o  c #54468F",
"O  c #56478F",
"+  c #56488F",
"@  c #554790",
"#  c #564790",
"$  c #574990",
"%  c #574991",
"&  c #574A90",
"*  c #584991",
"=  c #584A90",
"-  c #584A91",
";  c #594A91",
":  c #584B91",
">  c #594B91",
",  c #5B4D92",
"<  c #5C4E92",
"1  c #5D5096",
"2  c #635594",
"3  c #786297",
"4  c #7A6498",
"5  c #7D6698",
"6  c #746999",
"7  c #766A9A",
"8  c #7E6A99",
"9  c #7A6F9B",
"0  c #7D6C9D",
"q  c #7C719B",
"w  c #7C719C",
"e  c #7C719D",
"r  c #7F719C",
"t  c #7D729C",
"y  c #7D739C",
"u  c #7D739D",
"i  c #7C709E",
"p  c #7C719E",
"a  c #7F749D",
"s  c #6B60A3",
"d  c #6F66A9",
"f  c #6F66AA",
"g  c #7568A2",
"h  c #776BA3",
"j  c #786BA3",
"k  c #7A6EA1",
"l  c #7A6EA2",
"z  c #7A6EA4",
"x  c #7A6EA5",
"c  c #786FA6",
"v  c #7067A9",
"b  c #7167AA",
"n  c #7168A9",
"m  c #7168AA",
"M  c #7970AB",
"N  c #806E9E",
"B  c #80709E",
"V  c #80749D",
"C  c #80759D",
"Z  c #80769D",
"A  c #81769D",
"S  c #82779D",
"D  c #877E9F",
"F  c #8576A2",
"G  c #8176A7",
"H  c #887FA0",
"J  c #B6AD8B",
"K  c #8F86AB",
"L  c #8981AF",
"P  c #8A82AF",
"I  c #8E86AD",
"U  c #9984A1",
"Y  c #9188A2",
"T  c #978EA4",
"R  c #928AAB",
"E  c #918AAF",
"W  c #928BAF",
"Q  c #938CAF",
"!  c #988EAB",
"~  c #9990A4",
"^  c #9990A5",
"/  c #9C94A5",
"(  c #9D95A6",
")  c #918AB0",
"_  c #928BB0",
"`  c #938CB0",
"'  c #938DB0",
"]  c #928CB1",
"[  c #948CB0",
"{  c #958EB0",
"}  c #B08BA1",
"|  c #A9A2A1",
" . c #B0AAAC",
".. c #B6B0AE",
"X. c #B6B1AE",
"o. c #ABA5B0",
"O. c #B6A0B1",
"+. c #BCB7B9",
"@. c #C69BA5",
"#. c #C69CA6",
"$. c #C8A7A9",
"%. c #D1A6A9",
"&. c #CFB6B9",
"*. c #CFBCB8",
"=. c #D0BDB9",
"-. c #EAB3AB",
";. c #EAB4AB",
":. c #ECB6AC",
">. c #EEB7AC",
",. c #E3BAAE",
"<. c #D7CE82",
"1. c #D1CA91",
"2. c #E6DE86",
"3. c #EEE681",
"4. c #ECE486",
"5. c #ECE487",
"6. c #F2EA82",
"7. c #E8E295",
"8. c #EEE995",
"9. c #EFE997",
"0. c #D5D1AE",
"q. c #DAD6AA",
"w. c #DBD7AF",
"e. c #CDC0B1",
"r. c #CCC7B4",
"t. c #CFC6B6",
"y. c #CDC9B5",
"u. c #CECAB5",
"i. c #CECBB5",
"p. c #CFCBB5",
"a. c #CFCCB5",
"s. c #C8C2BA",
"d. c #C9C4BA",
"f. c #D4C4B2",
"g. c #D0CCB5",
"h. c #D3CBBA",
"j. c #D0CCBF",
"k. c #D5D1B7",
"l. c #D5D2B7",
"z. c #D7D4B7",
"x. c #D8D6B7",
"c. c #DDD9B0",
"v. c #D3D0BA",
"b. c #D3D0BB",
"n. c #D5D1B9",
"m. c #D6D2B9",
"M. c #D4D1BB",
"N. c #D5D2BB",
"B. c #D5D3BB",
"V. c #D5D2BC",
"C. c #D8D5B8",
"Z. c #D9D7B8",
"A. c #DAD7B8",
"S. c #EAC2B0",
"D. c #EFC7B2",
"F. c #F0C8B2",
"G. c #EED0B5",
"H. c #EFD2B5",
"J. c #F1EDAD",
"K. c #F1EEAE",
"L. c #F5F1A0",
"P. c #E9E7BD",
"I. c #ECEBBE",
"U. c #EDEBBE",
"Y. c #ECECBE",
"T. c #EDECBE",
"R. c #F2EFB2",
"E. c #F2EFB3",
"W. c #F0E3BB",
"Q. c #F2E7BD",
"!. c #F6E9BD",
"~. c #F4EABD",
"^. c #F7EBBD",
"/. c #F6EDBE",
"(. c #F4F1B3",
"). c #F4F2BC",
"_. c #F4F3BC",
"`. c #F4F0BF",
"'. c #F4F3BF",
"]. c #F5F4BF",
"[. c #A99EC0",
"{. c #AA9FC1",
"}. c #BCB2CB",
"|. c #BCB3CB",
" X c #BFB5CD",
".X c #C0B8C5",
"XX c #C2B9C6",
"oX c #C5BDC9",
"OX c #CCC5CA",
"+X c #DDD5DE",
"@X c #DCD4DF",
"#X c #DFD7DF",
"$X c #E2DBD7",
"%X c #E2DCD7",
"&X c #E4DED8",
"*X c #E6DFD8",
"=X c #E7E4C3",
"-X c #EEEBC7",
";X c #EFEDC5",
":X c #FBE5C6",
">X c #F8E8C4",
",X c #F0EDC8",
"<X c #F1EFC9",
"1X c #F3F2C0",
"2X c #F3F3C0",
"3X c #F2F0C2",
"4X c #F4F3C0",
"5X c #F6F3C1",
"6X c #F7F1C2",
"7X c #F4F4C0",
"8X c #F5F4C0",
"9X c #F4F5C0",
"0X c #F5F5C0",
"qX c #F5F4C1",
"wX c #F6F5C0",
"eX c #F6F5C1",
"rX c #F6F6C0",
"tX c #F6F7C0",
"yX c #F6F6C1",
"uX c #F7F6C1",
"iX c #F7F7C1",
"pX c #F5F4C2",
"aX c #F6F5C2",
"sX c #F7F6C2",
"dX c #F8F2C2",
"fX c #FAF2C3",
"gX c #F9F5C1",
"hX c #FAF3C4",
"jX c #F7F8C2",
"kX c #F8F8C2",
"lX c #F2F0C9",
"zX c #F3F0CA",
"xX c #F3F1CA",
"cX c #F4F1CA",
"vX c #E6E1D1",
"bX c #EAE4DB",
"nX c #DED6E0",
"mX c #DFD7E0",
"MX c #DFD7E1",
"NX c #E0D8E0",
"BX c None",
/* pixels */
"BXBXBXBX% % % % % ; , < BXBXBXBXBXBXBXBXBXBX% % % % % % BXBXBXBX",
"BXBXBXBXy Z Z Z A 7 2 - BXBXBXBXBXBXBXBXBXBXw C C Z Z y BXBXBXBX",
"BXBX% t X.a.i.a.g. .6 # + = = = = = = O X 9 ..p.i.i.a.X.t % BXBX",
"BXBX% r e.^.!./.gXA.( p l z z z z z z l i / Z.gX/.!.^.e.r % BXBX",
"BXBX- 8 $.F.D.H.~.Y.x.d..X}.|.|.|.|.}..Xs.z.I.~.H.D.F.$.8 - BXBX",
"BXBX: 5 @.:.-.S.W.9XtX<X*XMXNXNXNXNXMX*X<XtX9XW.S.-.:.@.5 : BXBX",
"BXBX: 5 #.>.;.S.W.9X0X,X&XnXmX#X#XmXnX&X,X0X9XW.S.;.>.#.5 : BXBX",
"BXBX: 4 } %.,.G.Q.7X4X-X%X@X@X+X+X@X@X%X-X4X7XQ.G.,.%.} 4 : BXBX",
"BXBXBXBX3 U f.~.`.2X'.-X$X@X@X@X@X@X@X$X-X'.2X`.~.f.U 3 BXBXBXBX",
"BXBXBXBX@ u y.jXiX8X4X;XvX$X%X%X%X%X$XvX;X4X8XiXjXy.u @ BXBXBXBX",
"BXBX< > % a u.kXkXeX4X3X;X-X-X-X-X-X-X;X3X4XeXkXkXu.a % > < BXBX",
"BXBX< > - A p.U.z.k.P.4X4X'.'.'.'.'.'.4X4XP.k.z.U.p.A - > < BXBX",
"BXBXBXBX* S g.C.^ T k.eX8X1X1X1X1X1X1X8XeXk.T ^ C.g.S * BXBXBXBX",
"BXBXBXBX* S g.C.~ T k.eXqX1X1X1X1X1X1XqXeXk.T ~ C.g.S * BXBXBXBX",
"BXBX< > - A p.T.z.l.P.4X4X1X1X1X1X1X1X4X4XP.l.z.T.p.A - > < BXBX",
"BXBX< > - V t.fXhXdX5X8X8X8X8X8X8X8X8X8X8X5XdXhXfXt.V - > < BXBX",
"BXBXBXBX- B *.:X:X>X6XrXwXeXeXeXeXeXeXwXrX6X>X:X:X*.B - BXBXBXBX",
"BXBXBXBX& 0 O.&.&.=.h.B.N.M.M.b.b.v.M.N.B.h.=.&.&.O.0 & BXBXBXBX",
"BXBXBXBXBXBX0 N N F K { { [ _ ) E W Q { { K F N N 0 BXBXBXBXBXBX",
"BXBXBXBXBXBX& $ + 1 s m m c H Y R P M n m s 1 + $ & BXBXBXBXBXBX",
"BXBXBXBXBXBXBXBX+ 1 s b f D J 1.0.+.L d v s 1 + BXBXBXBXBXBXBXBX",
"BXBXBXBXBXBXBXBXj G I ' ] | <.6.L.c.o.W ` I G j BXBXBXBXBXBXBXBX",
"BXBXBXBXBXBX= j {.oXj.N.V.q.2.  3.7.w.V.N.j.oX{.j = BXBXBXBXBXBX",
"BXBXBXBXBXBX= x  XbXxXuXyX(.9.5.4.8.(.yXuXxXbX Xx = BXBXBXBXBXBX",
"BXBXBXBXBXBX= x  XbXlX0X8X_.E.K.J.R.).8X0XlXbX Xx = BXBXBXBXBXBX",
"BXBXBXBXBXBX= h [.OX=X].'.4XpXaXaXpX4X'.].=XOX[.h = BXBXBXBXBXBX",
"BXBXBXBXBXBXBXBXg ! m.rX0X7XeXsXsXeX7X0XrXm.! g BXBXBXBXBXBXBXBX",
"BXBXBXBXBXBXBXBXo e d.cXzX=Xn.r.r.n.=XzXcXd.e o BXBXBXBXBXBXBXBX",
"BXBXBXBXBXBXBXBX+ k XXbXbXOX! q q ! OXbXbXXXk + BXBXBXBXBXBXBXBX",
"BXBXBXBXBXBXBXBX= j [. X X[.g . . g [. X X[.j = BXBXBXBXBXBXBXBX",
"BXBXBXBXBXBXBXBXBXBXj x x h BXBXBXBXh x x j BXBXBXBXBXBXBXBXBXBX",
"BXBXBXBXBXBXBXBXBXBX= = = = BXBXBXBX= = = = BXBXBXBXBXBXBXBXBXBX"
};
