/* XPM */
static char *result[] = {
/* columns rows colors chars-per-pixel */
"32 32 152 2 ",
"   c #52438E",
".  c #54458F",
"X  c #54468F",
"o  c #56478F",
"O  c #56488F",
"+  c #544690",
"@  c #564790",
"#  c #564890",
"$  c #574890",
"%  c #574991",
"&  c #584991",
"*  c #584A90",
"=  c #584A91",
"-  c #594A91",
";  c #594B91",
":  c #5B4D92",
">  c #5C4E92",
",  c #5A4D95",
"<  c #5D5096",
"1  c #635594",
"2  c #746999",
"3  c #766A9A",
"4  c #7A6F9B",
"5  c #7B6F9B",
"6  c #7C719B",
"7  c #7C719C",
"8  c #7C719D",
"9  c #7D729C",
"0  c #7F739D",
"q  c #7C709E",
"w  c #7C719E",
"e  c #6B60A3",
"r  c #6C61A3",
"t  c #7568A2",
"y  c #776BA3",
"u  c #776EA7",
"i  c #786BA3",
"p  c #7A6EA1",
"a  c #7A6DA2",
"s  c #7A6DA4",
"d  c #7A6DA5",
"f  c #7A6EA5",
"g  c #7269A9",
"h  c #7268AA",
"j  c #7269AA",
"k  c #736AAA",
"l  c #746AAA",
"z  c #746BAA",
"x  c #756CAA",
"c  c #7C72A0",
"v  c #80759D",
"b  c #80769D",
"n  c #8176A7",
"m  c #857BA2",
"M  c #8F86A1",
"N  c #8F87AB",
"B  c #8D85AD",
"V  c #8E86AD",
"C  c #9289A2",
"Z  c #988FA3",
"A  c #948DAF",
"S  c #988FAB",
"D  c #9890A4",
"F  c #9A91A4",
"G  c #9C93A5",
"H  c #9D95A6",
"J  c #948DB0",
"K  c #958EB0",
"L  c #968FB0",
"P  c #9790B0",
"I  c #B0AAAC",
"U  c #B6B0AD",
"Y  c #B6B0AE",
"T  c #B7B0AE",
"R  c #B9B3AE",
"E  c #BBB5AF",
"W  c #BBB6B3",
"Q  c #CBC7B4",
"!  c #CCC8B4",
"~  c #CDC9B5",
"^  c #CEC9B5",
"/  c #CECAB5",
"(  c #CFCAB5",
")  c #CFCBB5",
"_  c #C8C2BA",
"`  c #C9C4BA",
"'  c #D0CCB5",
"]  c #D1CDB5",
"[  c #D0CCB6",
"{  c #D0CCBF",
"}  c #D6D3B6",
"|  c #D6D3B7",
" . c #D7D3B7",
".. c #D7D4B6",
"X. c #D7D4B7",
"o. c #D8D4B7",
"O. c #D8D5B7",
"+. c #D3D0B9",
"@. c #D6D2B9",
"#. c #D6D3B9",
"$. c #D5D2BB",
"%. c #D9D6B8",
"&. c #DAD7B8",
"*. c #D8D5BB",
"=. c #DBD8B8",
"-. c #DBD8BC",
";. c #EBEABE",
":. c #ECEABD",
">. c #ECEBBD",
",. c #EEEDBD",
"<. c #EEECBE",
"1. c #F3F3BF",
"2. c #F4F3BF",
"3. c #A99EC0",
"4. c #AA9FC1",
"5. c #BFB7C6",
"6. c #BCB2CC",
"7. c #BFB5CD",
"8. c #C0B7C6",
"9. c #C2B9C6",
"0. c #C5BDC9",
"q. c #CEC7CA",
"w. c #E5DFD9",
"e. c #EAE7C4",
"r. c #EFEDC9",
"t. c #F1EFC7",
"y. c #F0EDC8",
"u. c #F3F2C0",
"i. c #F4F3C0",
"p. c #F4F3C3",
"a. c #F5F4C0",
"s. c #F5F4C1",
"d. c #F6F5C0",
"f. c #F6F5C1",
"g. c #F6F6C1",
"h. c #F7F6C1",
"j. c #F2F0C7",
"k. c #F8F7C1",
"l. c #F8F8C2",
"z. c #F9F8C2",
"x. c #F9F9C2",
"c. c #FAFAC2",
"v. c #FDFDC3",
"b. c #F4F2CA",
"n. c #F5F2CA",
"m. c #F5F3CA",
"M. c #F5F3CB",
"N. c #EAE5D3",
"B. c #EBE5DB",
"V. c #ECE6DB",
"C. c #ECE6DC",
"Z. c None",
/* pixels */
"Z.Z.Z.Z.% % % % % - : > Z.Z.Z.Z.Z.Z.Z.Z.Z.Z.% % % % % % Z.Z.Z.Z.",
"Z.Z.Z.Z.9 v v v b 3 1 = Z.Z.Z.Z.Z.Z.Z.Z.Z.Z.7 v v v v 9 Z.Z.Z.Z.",
"Z.Z.% 9 U ) / ( ' I 2 @ O * * * * * * o . 4 Y ) / / ) U 9 % Z.Z.",
"Z.Z.% v ) c.z.l.x.&.H w a d s s s s d a q G %.x.l.z.c.) v % Z.Z.",
"Z.Z.% v / z.k.f.f.>.O.` 8.6.6.6.6.6.6.5._ X.:.f.f.k.z./ v % Z.Z.",
"Z.Z.% v / l.f.u.u.i.d.j.N.w.w.w.w.w.w.N.j.d.i.u.u.f.l./ v % Z.Z.",
"Z.Z.% v ) x.f.u.u.i.a.p.t.r.y.y.y.y.r.t.p.a.i.u.u.f.x.) v % Z.Z.",
"Z.Z.% 9 T %.;.i.i.u.u.u.1.2.2.2.2.2.2.1.u.u.u.i.i.;.%.T 9 % Z.Z.",
"Z.Z.Z.Z.5 G | f.s.u.u.u.u.u.u.u.u.u.u.u.u.u.u.s.f.| G 5 Z.Z.Z.Z.",
"Z.Z.Z.Z.+ 9 ! h.s.u.u.u.u.u.u.u.u.u.u.u.u.u.u.s.h.! 9 + Z.Z.Z.Z.",
"Z.Z.> - # 0 ^ h.s.u.u.u.u.u.u.u.u.u.u.u.u.u.u.s.h.^ 0 # - > Z.Z.",
"Z.Z.> ; = v / h.s.u.u.u.u.u.u.u.u.u.u.u.u.u.u.s.h./ v = ; > Z.Z.",
"Z.Z.Z.Z.& v ~ h.s.u.u.u.u.u.u.u.u.u.u.u.u.u.u.s.h.~ v & Z.Z.Z.Z.",
"Z.Z.Z.Z.& v ~ h.s.u.u.u.u.u.u.u.u.u.u.u.u.u.u.s.h.~ v & Z.Z.Z.Z.",
"Z.Z.> ; = v / h.s.u.u.u.u.u.u.u.u.u.u.u.u.u.u.s.h./ v = ; > Z.Z.",
"Z.Z.> ; = b ) z.k.s.a.a.a.a.a.a.a.a.a.a.a.a.s.k.z.) b = ; > Z.Z.",
"Z.Z.Z.Z.& v ) c.z.g.f.f.f.f.f.f.f.f.f.f.f.f.g.z.c.) v & Z.Z.Z.Z.",
"Z.Z.Z.Z.% 9 U ) ) [ +.$.$.$.$.$.$.$.$.$.$.+.[ ) ) U 9 % Z.Z.Z.Z.",
"Z.Z.Z.Z.Z.Z.9 v v m N K J A A A A A A J K N m v v 9 Z.Z.Z.Z.Z.Z.",
"Z.Z.Z.Z.Z.Z.% $ O < e j h g k l l k g h j e < O $ % Z.Z.Z.Z.Z.Z.",
"Z.Z.Z.Z.Z.Z.Z.Z.o < e j h g z x x z g h j e < o Z.Z.Z.Z.Z.Z.Z.Z.",
"Z.Z.Z.Z.Z.Z.Z.Z.i n V L P B u r r u B P L V n i Z.Z.Z.Z.Z.Z.Z.Z.",
"Z.Z.Z.Z.Z.Z.* i 4.0.{ *.-.W c , , c W -.*.{ 0.4.i * Z.Z.Z.Z.Z.Z.",
"Z.Z.Z.Z.Z.Z.* f 7.B.b.,.=.E C 9 9 C E =.,.b.B.7.f * Z.Z.Z.Z.Z.Z.",
"Z.Z.Z.Z.Z.Z.* f 7.V.m.o.F M R ] ] R M F o.m.V.7.f * Z.Z.Z.Z.Z.Z.",
"Z.Z.Z.Z.Z.Z.* y 3.q.e.} Z D %.v.v.%.D Z } e.q.3.y * Z.Z.Z.Z.Z.Z.",
"Z.Z.Z.Z.Z.Z.Z.Z.t S #.>... .<.c.c.<. ...>.#.S t Z.Z.Z.Z.Z.Z.Z.Z.",
"Z.Z.Z.Z.Z.Z.Z.Z.X 8 ` n.M.e.@.Q Q @.e.M.n.` 8 X Z.Z.Z.Z.Z.Z.Z.Z.",
"Z.Z.Z.Z.Z.Z.Z.Z.O p 9.B.C.q.S 6 6 S q.C.B.9.p O Z.Z.Z.Z.Z.Z.Z.Z.",
"Z.Z.Z.Z.Z.Z.Z.Z.* i 3.7.7.3.t     t 3.7.7.3.i * Z.Z.Z.Z.Z.Z.Z.Z.",
"Z.Z.Z.Z.Z.Z.Z.Z.Z.Z.i f f y Z.Z.Z.Z.y f f i Z.Z.Z.Z.Z.Z.Z.Z.Z.Z.",
"Z.Z.Z.Z.Z.Z.Z.Z.Z.Z.* * * * Z.Z.Z.Z.* * * * Z.Z.Z.Z.Z.Z.Z.Z.Z.Z."
};
