/* XPM */
static char *result[] = {
/* columns rows colors chars-per-pixel */
"32 32 219 2 ",
"   c #EBE37D",
".  c #5B4C93",
"X  c #5B4D93",
"o  c #5B4E93",
"O  c #5D4E91",
"+  c #5C4D92",
"@  c #5C4C93",
"#  c #5C4D93",
"$  c #5D4D93",
"%  c #5E4D93",
"&  c #5C4E93",
"*  c #5D4E93",
"=  c #5C4D94",
"-  c #5D4D94",
";  c #5C4D95",
":  c #605195",
">  c #615294",
",  c #615394",
"<  c #615295",
"1  c #6A5D9E",
"2  c #6D5E9E",
"3  c #725D96",
"4  c #725D97",
"5  c #6D609E",
"6  c #716098",
"7  c #726098",
"8  c #736198",
"9  c #706398",
"0  c #71609A",
"q  c #74639B",
"w  c #73659A",
"e  c #73669A",
"r  c #73669B",
"t  c #74659A",
"y  c #74659B",
"u  c #75669A",
"i  c #74679A",
"p  c #74679B",
"a  c #70619F",
"s  c #70629E",
"d  c #70629F",
"f  c #71659E",
"g  c #7C6FA6",
"h  c #7C6FA7",
"j  c #776CAA",
"k  c #766DAA",
"l  c #776DAA",
"z  c #776CAB",
"x  c #766DAB",
"c  c #776DAB",
"v  c #796FAA",
"b  c #796FAB",
"n  c #7B71AA",
"m  c #7A70AB",
"M  c #7A71AB",
"N  c #7C73A8",
"B  c #7E74AC",
"V  c #8073A8",
"C  c #A49A97",
"Z  c #BDB597",
"A  c #8A80A2",
"S  c #8F85A3",
"D  c #8A82AE",
"F  c #8A83AE",
"G  c #8C80AE",
"H  c #8E85AF",
"J  c #988EA5",
"K  c #938BA9",
"L  c #968BAB",
"P  c #948CAF",
"I  c #9E8AAA",
"U  c #9E8CAA",
"Y  c #9E97A7",
"T  c #9F97A7",
"R  c #9C94AD",
"E  c #9C95AD",
"W  c #9184B1",
"Q  c #9185B1",
"!  c #978AB5",
"~  c #978AB6",
"^  c #978CB6",
"/  c #988DB7",
"(  c #998DB7",
")  c #9B8FB8",
"_  c #AC97AE",
"`  c #AD97AE",
"'  c #A29AA8",
"]  c #A39AA8",
"[  c #A39BA8",
"{  c #A39AA9",
"}  c #A79FAA",
"|  c #A59ABD",
" . c #A59ABE",
".. c #ACA5AC",
"X. c #ADA5AC",
"o. c #AEA6AF",
"O. c #B6AFAE",
"+. c #B8B2AE",
"@. c #B8B2AF",
"#. c #BFBAAF",
"$. c #A7A1B4",
"%. c #ADA3BB",
"&. c #B1A3B2",
"*. c #B4ACB0",
"=. c #B4ACB1",
"-. c #B8B3B6",
";. c #B8B3B7",
":. c #B9B4B6",
">. c #B9B4B7",
",. c #B9B5B7",
"<. c #C198A6",
"1. c #C198A7",
"2. c #C3A4AA",
"3. c #C3A5AB",
"4. c #C4AAAB",
"5. c #C4ABAB",
"6. c #C8B3B7",
"7. c #C7BDB2",
"8. c #C8BDB5",
"9. c #E9B6AC",
"0. c #E9B6AD",
"q. c #E9B7AD",
"w. c #CAC18B",
"e. c #E2DB90",
"r. c #E3DE9C",
"t. c #ECE586",
"y. c #EDE588",
"u. c #EDE68D",
"i. c #EFEA9F",
"p. c #C6C0B7",
"a. c #C8C2B4",
"s. c #C9C2B4",
"d. c #C8C3B4",
"f. c #C8C2B5",
"g. c #C8C3B5",
"h. c #CECAB3",
"j. c #C8C2B8",
"k. c #C8C2B9",
"l. c #C8C4B9",
"z. c #C9C4B9",
"x. c #D3CFB5",
"c. c #D2CEB7",
"v. c #D3CFB7",
"b. c #D0CCBB",
"n. c #D0CDBB",
"m. c #D0CEBB",
"M. c #D1CEBB",
"N. c #D7D4B8",
"B. c #DAD6B9",
"V. c #DFDDBB",
"C. c #ECC7B2",
"Z. c #ECC7B3",
"A. c #EDCEB5",
"S. c #EDCFB5",
"D. c #EFD8B8",
"F. c #EFDCBA",
"G. c #EFDDBA",
"H. c #F0ECA8",
"J. c #E5E3BE",
"K. c #E4E3BF",
"L. c #E7E5BD",
"P. c #EAE8BE",
"I. c #EBE8BE",
"U. c #EBE9BE",
"Y. c #F3EEB6",
"T. c #F2EFB6",
"R. c #F1E8BE",
"E. c #F1E9BE",
"W. c #F2EDBE",
"Q. c #F2ECBF",
"!. c #F2F0BA",
"~. c #F2F0BC",
"^. c #F2F1BC",
"/. c #B8AFCA",
"(. c #B9AFCA",
"). c #B9AFCB",
"_. c #BEB5C3",
"`. c #D4CFC5",
"'. c #D3CAD7",
"]. c #DBD3DD",
"[. c #DED6DE",
"{. c #DFD6DE",
"}. c #DFD7DE",
"|. c #DED6DF",
" X c #DED7DF",
".X c #DFD7DF",
"XX c #F2DBC5",
"oX c #F3DBC5",
"OX c #E4DED7",
"+X c #E5DED7",
"@X c #EFEEC0",
"#X c #EFEFC0",
"$X c #E4E1CA",
"%X c #E5E1CB",
"&X c #E6E2CB",
"*X c #EAE7CD",
"=X c #E9E5CE",
"-X c #E9E5CF",
";X c #EEEBC8",
":X c #F3E4C4",
">X c #F3E9C3",
",X c #F0EFC0",
"<X c #F3EDC2",
"1X c #F0EEC6",
"2X c #F0EFC6",
"3X c #F2F0C0",
"4X c #F3F0C0",
"5X c #F3F1C0",
"6X c #F2F0C1",
"7X c #F2F1C1",
"8X c #F3F1C1",
"9X c #F2F2C0",
"0X c #F3F2C0",
"qX c #F2F2C1",
"wX c #F3F2C1",
"eX c #F3F3C1",
"rX c #E8E3D0",
"tX c #E8E3D1",
"yX c None",
/* pixels */
"yXyXyXyXyXyXyXyXyXyXyXyXyXyXyXyXyXyXyXyXyXyXyXyXyXyXyXyXyXyXyXyX",
"yXyXyXyXyXyXyXyXyXyXyXyXyXyXyXyXyXyXyXyXyXyXyXyXyXyXyXyXyXyXyXyX",
"yXyXyXyXyXyXyX# # # + o yXyXyXyXyXyXyXyX# # # # ; yXyXyXyXyXyXyX",
"yXyXyXyXyXyX9 J ] ] ] ] A yXyXyXyXyXyXA ] ' { ] J 9 yXyXyXyXyXyX",
"yXyXyXyXyX* e a.4X5X8XwX] # yXyXyXyX# [ wX8X5X4Xf.e * yXyXyXyXyX",
"yXyXyXyXyX* 8 5.A.A.F.8X] # . * * . # ' 7XG.S.A.4.8 * yXyXyXyXyX",
"yXyXyXyXyX* 3 <.0.0.A.4Xo.d d d d d d o.4XA.q.0.<.4 * yXyXyXyXyX",
"yXyXyXyXyX* 4 1.9.0.A.4X`.(.(./.(.).(.`.4XA.0.0.<.4 * yXyXyXyXyX",
"yXyXyXyXyX* 7 2.Z.Z.D.5XtX|.{.|.|.|.|.tX5XD.Z.C.3.7 * yXyXyXyXyX",
"yXyXyXyXyX* w 7.E.E.Q.wXtX}.|.|.|. X|.tXeXW.E.R.7.w * yXyXyXyXyX",
"yXyXyXyXyX* i d.wXqXwX0XtX[.|.|.|.|.|.rXeXwXwXwXg.i O yXyXyXyXyX",
"yXyXyXyXyX* u d.wXqXwXwXtX|.|.|.|..X|.tXwXwXwXwXg.i * yXyXyXyXyX",
"yXyXyXyX% # i d.wXeX0XwX;X=X-X-X-X-X-X;XwXwXwXwXd.p # ; yXyXyXyX",
"yXyXyXyX# # i d.@XL.U.7XwXqXqXwXwXqXwX0X8XI.L.@Xd.i # $ yXyXyXyX",
"yXyXyXyXyX. i f.N.Y @.,XwXwXwXwXwXwXeXwX,X+.T N.s.i . yXyXyXyXyX",
"yXyXyXyXyX@ i d.c.S ..#XwXwXwXwXwXwXwXwX@XX.S c.d.p & yXyXyXyXyX",
"yXyXyXyXX # i d.P.N.V.6XwXwXwX0XqXwXwXwX7XV.N.P.d.i # X yXyXyXyX",
"yXyXyXyX# X y 8.>X>X<XwXwXwXwXwX0X0XwXwXwX<X>X>X8.t # # yXyXyXyX",
"yXyXyXyXyX& q 6.oXXX:X8XwXeX0XwXwXwXwXwX8X:XoXoX6.q & yXyXyXyXyX",
"yXyXyXyXyXyX0 U ` _ &.-.>.>.>.:.:.:.:.,.;.&._ ` I 6 yXyXyXyXyXyX",
"yXyXyXyXyXyXyX: : < 1 k x c v n M m l c j 1 < : : yXyXyXyXyXyXyX",
"yXyXyXyXyXyX5 ) %.*.E b l N C Z #.$.B z b R =.%.) 2 yXyXyXyXyXyX",
"yXyXyXyXyXO d (.OX1Xl.H D K w.t.H.h.P F H z.1XOX(.s O yXyXyXyXyX",
"yXyXyXyXyXo d (.OX2XJ.M.b.x.e.  y.r.v.n.m.K.1X+X(.d * yXyXyXyXyX",
"yXyXyXyXyXyXa | _.p.B.3XwX^.i.u.u.i.~.9X3XB.p._. .a yXyXyXyXyXyX",
"yXyXyXyXyXyXyXa f r } @XwX0X!.Y.T.!.0XwX@X} r f a yXyXyXyXyXyXyX",
"yXyXyXyXyXyXyXyX# # L &X*X$Xj.O.O.k.%X*X&XL $ # yXyXyXyXyXyXyXyX",
"yXyXyXyXyXyXyXyXyX= W ].{.'.G , > G '.}.].Q = yXyXyXyXyXyXyXyXyX",
"yXyXyXyXyXyXyXyXyXyXV ^ / ! h yXyXg ~ ( ^ V yXyXyXyXyXyXyXyXyXyX",
"yXyXyXyXyXyXyXyXyXyXyX# # - yXyXyXyX- # # yXyXyXyXyXyXyXyXyXyXyX",
"yXyXyXyXyXyXyXyXyXyXyXyXyXyXyXyXyXyXyXyXyXyXyXyXyXyXyXyXyXyXyXyX",
"yXyXyXyXyXyXyXyXyXyXyXyXyXyXyXyXyXyXyXyXyXyXyXyXyXyXyXyXyXyXyXyX"
};
