/* XPM */
static char *result[] = {
/* columns rows colors chars-per-pixel */
"32 32 127 2 ",
"   c #52438E",
".  c #55468F",
"X  c #55478F",
"o  c #56478F",
"O  c #574991",
"+  c #584991",
"@  c #584A90",
"#  c #584A91",
"$  c #594B91",
"%  c #5C4E92",
"&  c #5C4F96",
"*  c #63579B",
"=  c #776C9D",
"-  c #786D9F",
";  c #7A6F9F",
":  c #7B709B",
">  c #7C719B",
",  c #7D719B",
"<  c #7D729B",
"1  c #7B709E",
"2  c #7D729C",
"3  c #7E739C",
"4  c #7C709E",
"5  c #7C719E",
"6  c #7F749C",
"7  c #6A60A3",
"8  c #6D63A5",
"9  c #6F65A5",
"0  c #7166A2",
"q  c #7568A2",
"w  c #7669A2",
"e  c #776BA3",
"r  c #746AA6",
"t  c #756BA6",
"y  c #786BA3",
"u  c #796DA1",
"i  c #7A6EA2",
"p  c #786BA4",
"a  c #796CA4",
"s  c #7A6DA4",
"d  c #7A6EA5",
"f  c #7067A9",
"g  c #7168A8",
"h  c #7268AA",
"j  c #736AAA",
"k  c #80759D",
"l  c #81769C",
"z  c #80769D",
"x  c #8378A1",
"c  c #877FAB",
"v  c #8F86AB",
"b  c #8880AC",
"n  c #948DAF",
"m  c #988EAB",
"M  c #988FAB",
"N  c #9A92A4",
"B  c #9D95A5",
"V  c #948DB0",
"C  c #958EB0",
"Z  c #B2ABAD",
"A  c #B6B0AD",
"S  c #AEA8B4",
"D  c #B6B0B1",
"F  c #B7B1B1",
"G  c #CBC7B4",
"H  c #CDC9B4",
"J  c #CDC9B5",
"K  c #CECAB4",
"L  c #CECAB5",
"P  c #CFCBB5",
"I  c #CECAB6",
"U  c #CAC5BB",
"Y  c #CBC6BB",
"T  c #D2CFB6",
"R  c #D8D5B7",
"E  c #D9D6B7",
"W  c #DAD7B7",
"Q  c #D3D0B9",
"!  c #D6D2B9",
"~  c #D5D2BB",
"^  c #DAD7B8",
"/  c #E1DFBD",
"(  c #E2E0BD",
")  c #EEEDBD",
"_  c #EEEDBE",
"`  c #F0EFBE",
"'  c #F3F2BF",
"]  c #F3F3BF",
"[  c #F4F3BF",
"{  c #A89DC0",
"}  c #A99EC0",
"|  c #BCB2CB",
" . c #BBB2CC",
".. c #BCB2CC",
"X. c #BFB5CD",
"o. c #C2BAC6",
"O. c #C3BAC7",
"+. c #CAC3C9",
"@. c #CEC7CA",
"#. c #E5DFD9",
"$. c #E6E3C3",
"%. c #EAE7C4",
"&. c #F0EDC6",
"*. c #F0EEC6",
"=. c #F0EDC8",
"-. c #F0EDC9",
";. c #F2F2C0",
":. c #F3F2C0",
">. c #F2F1C2",
",. c #F4F3C0",
"<. c #F5F4C0",
"1. c #F5F4C1",
"2. c #F6F5C1",
"3. c #F6F6C1",
"4. c #F7F6C1",
"5. c #F8F7C1",
"6. c #F9F8C2",
"7. c #FAFAC2",
"8. c #FDFDC3",
"9. c #F5F2CA",
"0. c #F5F3CB",
"q. c #F6F4CB",
"w. c #F8F6CB",
"e. c #E9E4D3",
"r. c #EBE5DB",
"t. c #ECE6DC",
"y. c None",
/* pixels */
"y.y.y.y.y.y.O O O O O O y.y.y.y.y.y.y.y.O O O O O O y.y.y.y.y.y.",
"y.y.y.y.y.y.2 k k k k 2 y.y.y.y.y.y.y.y.2 k k k k 2 y.y.y.y.y.y.",
"y.y.y.y.O 2 A P L L P A 2 O y.y.y.y.O 2 A P L L P A 2 O y.y.y.y.",
"y.y.y.y.O k P 7.6.6.7.P 6 X y.y.y.y.X 6 P 7.6.6.7.P k O y.y.y.y.",
"y.y.y.y.O k L 6.5.5.6.P 3 X o @ @ o X 3 P 6.5.5.6.L k O y.y.y.y.",
"y.y.y.y.O k H 4.1.<.2.! m p a s s a p m ! 2.<.1.4.H k O y.y.y.y.",
"y.y.y.y.O k H 4.1.,.,.$.+... .| |  ...+.$.,.,.1.4.H k O y.y.y.y.",
"y.y.y.y.O k H 4.1.:.' &.e.#.#.#.#.#.#.e.&.' :.1.4.H k O y.y.y.y.",
"y.y.y.y.O k H 4.1.:.:.>.*.-.=.=.=.=.-.*.>.:.:.1.4.H k O y.y.y.y.",
"y.y.y.y.O k H 4.1.:.:.:.] [ [ [ [ [ [ ] :.:.:.1.4.H k O y.y.y.y.",
"y.y.y.y.O k H 4.1.:.:.:.:.:.:.:.:.:.:.:.:.:.:.1.4.H k O y.y.y.y.",
"y.y.y.y.+ k J 4.1.:.:.:.:.:.:.:.:.:.:.:.:.:.:.1.4.J k + y.y.y.y.",
"y.y.% $ # k L 4.1.:.:.:.:.:.:.:.:.:.:.:.:.:.:.1.4.L k # $ % y.y.",
"y.y.% $ # k L 4.1.:.:.:.:.:.:.:.:.:.:.:.:.:.:.1.4.L k # $ % y.y.",
"y.y.y.y.+ k J 4.1.:.:.:.:.:.:.:.:.:.:.:.:.:.:.1.4.J k + y.y.y.y.",
"y.y.y.y.+ k J 4.1.:.:.:.:.:.:.:.:.:.:.:.:.:.:.1.4.J k + y.y.y.y.",
"y.y.% $ # k L 4.1.:.:.:.:.:.:.:.:.:.:.:.:.:.:.1.4.L k # $ % y.y.",
"y.y.% $ # z P 6.5.1.<.<.<.<.<.<.<.<.<.<.<.<.1.5.6.P z # $ % y.y.",
"y.y.y.y.+ k P 7.6.3.2.2.2.2.2.2.2.2.2.2.2.2.3.6.7.P k + y.y.y.y.",
"y.y.y.y.O 2 A K H I Q ~ ~ ~ ~ ~ ~ ~ ~ ~ ~ Q I H K A 2 O y.y.y.y.",
"y.y.y.y.y.y.: < , x v C V n C C C C n V C v x , < : y.y.y.y.y.y.",
"y.y.y.y.y.y.w u 4 ; r h j g 8 7 7 8 g j h r ; 4 u w y.y.y.y.y.y.",
"y.y.y.y.@ y { O.Y F c f j 9 * & & * 9 j f c F Y O.{ y @ y.y.y.y.",
"y.y.y.y.@ d X.t.w.( S b t 0 1 l l 1 0 t b S ( w.t.X.d @ y.y.y.y.",
"y.y.y.y.@ d X.r.q.;./ D - = Z T T Z = - D / ;.q.r.X.d @ y.y.y.y.",
"y.y.y.y.@ y } o.U ^ ` E N N ^ 8.8.^ N N E ` ^ U o.} y @ y.y.y.y.",
"y.y.y.y.y.y.y i 5 B W ) E R _ 7.7._ R E ) W B 5 i y y.y.y.y.y.y.",
"y.y.y.y.y.y.@ o . 5 U 9.0.%.! G G ! %.0.9.U 5 . o @ y.y.y.y.y.y.",
"y.y.y.y.y.y.y.y.o i o.r.t.@.M > > M @.t.r.o.i o y.y.y.y.y.y.y.y.",
"y.y.y.y.y.y.y.y.@ y } X.X.} q     q } X.X.} y @ y.y.y.y.y.y.y.y.",
"y.y.y.y.y.y.y.y.y.y.y d d e y.y.y.y.e d d y y.y.y.y.y.y.y.y.y.y.",
"y.y.y.y.y.y.y.y.y.y.@ @ @ @ y.y.y.y.@ @ @ @ y.y.y.y.y.y.y.y.y.y."
};
