/* XPM */
static char *result[] = {
/* columns rows colors chars-per-pixel */
"32 32 215 2 ",
"   c #BEB37F",
".  c #C9BE7C",
"X  c #CBC17F",
"o  c #F0E777",
"O  c #F1E876",
"+  c #52438F",
"@  c #53448E",
"#  c #54458F",
"$  c #54468F",
"%  c #55478F",
"&  c #544690",
"*  c #554690",
"=  c #554790",
"-  c #564790",
";  c #564890",
":  c #564891",
">  c #574891",
",  c #574991",
"<  c #584991",
"1  c #584A90",
"2  c #584A91",
"3  c #594A91",
"4  c #594B91",
"5  c #5B4D92",
"6  c #5C4E92",
"7  c #62548E",
"8  c #635594",
"9  c #75678B",
"0  c #7B6E8A",
"q  c #796D92",
"w  c #746999",
"e  c #766A9A",
"r  c #7A6F9A",
"t  c #7B6F9A",
"y  c #7A6F9B",
"u  c #7A6F9C",
"i  c #7B709B",
"p  c #7C719C",
"a  c #7C729C",
"s  c #7D729C",
"d  c #7D739C",
"f  c #7E739C",
"g  c #7E739D",
"h  c #7F749D",
"j  c #6F66A9",
"k  c #7568A2",
"l  c #756BA2",
"z  c #776AA3",
"x  c #776BA3",
"c  c #786BA3",
"v  c #7A6EA5",
"b  c #7067A9",
"n  c #7068A9",
"m  c #7168A9",
"M  c #7168AA",
"N  c #7268AA",
"B  c #7269AB",
"V  c #736AAA",
"C  c #766CA8",
"Z  c #7B70A1",
"A  c #7E73A6",
"S  c #7971AB",
"D  c #83778F",
"F  c #80759D",
"G  c #80769D",
"H  c #8278A0",
"J  c #8379A2",
"K  c #8F8599",
"L  c #89809F",
"P  c #B2A888",
"I  c #8C84AA",
"U  c #8F86AB",
"Y  c #8982AD",
"T  c #8A83AE",
"R  c #8C83AC",
"E  c #978EA4",
"W  c #978EAB",
"Q  c #928BAF",
"!  c #938CAF",
"~  c #958EAF",
"^  c #988EAB",
"/  c #9B90A4",
"(  c #9C94A6",
")  c #9E95A6",
"_  c #9486B1",
"`  c #928AB0",
"'  c #9488B0",
"]  c #948BB0",
"[  c #958EB0",
"{  c #B0AAAC",
"}  c #B5AFAD",
"|  c #B5AFAE",
" . c #B6B0AD",
".. c #B5B0AE",
"X. c #B7B2AE",
"o. c #ACA7B3",
"O. c #B7B2B3",
"+. c #BCB8B6",
"@. c #D5BDBF",
"#. c #E7B0AA",
"$. c #CFC682",
"%. c #CCC8B4",
"&. c #CDC8B4",
"*. c #CDC9B4",
"=. c #CDC9B5",
"-. c #CECAB5",
";. c #CFCAB5",
":. c #CECBB5",
">. c #CFCBB5",
",. c #CFCCB5",
"<. c #D4C8B4",
"1. c #D6CAB4",
"2. c #D7CBB5",
"3. c #D0CCB5",
"4. c #D0CDB6",
"5. c #D0CDB7",
"6. c #D0CEB6",
"7. c #D4C2BE",
"8. c #D5C2BE",
"9. c #D1CCBF",
"0. c #D4CCBC",
"q. c #D5CDBC",
"w. c #D5D1B7",
"e. c #D6D2B7",
"r. c #D6D3B7",
"t. c #D3D0B9",
"y. c #D5D1B9",
"u. c #D4D1BA",
"i. c #D4D1BB",
"p. c #D5D2BB",
"a. c #D5D3BB",
"s. c #D7D3BA",
"d. c #D7D4B8",
"f. c #D7D4BB",
"g. c #D9D6B8",
"h. c #D8D5BC",
"j. c #DCD9B9",
"k. c #DDDBBC",
"l. c #DFDDBC",
"z. c #E5C7B2",
"x. c #EAC2B0",
"c. c #EBC3B0",
"v. c #EBC3B1",
"b. c #EDC5B1",
"n. c #EEC5B1",
"m. c #EEC6B1",
"M. c #E6C8B3",
"N. c #EDCFB4",
"B. c #EFD2B5",
"V. c #E9E7BD",
"C. c #E9E8BD",
"Z. c #ECEABE",
"A. c #ECEBBE",
"S. c #EEECBE",
"D. c #EFEDBF",
"F. c #F0E3BB",
"G. c #F2E5BC",
"H. c #F1E7BC",
"J. c #F3E6BC",
"K. c #F6E9BD",
"L. c #F4EABD",
"P. c #F7EABD",
"I. c #F2EEBF",
"U. c #F6EDBE",
"Y. c #F8ECBD",
"T. c #F3F3BF",
"R. c #A89DC0",
"E. c #A99EC0",
"W. c #BFB5CD",
"Q. c #C4BCC8",
"!. c #CCC4C9",
"~. c #CCC5CA",
"^. c #E7E4C3",
"/. c #E8E5C4",
"(. c #F6E6C3",
"). c #F6E0C5",
"_. c #F7E6C4",
"`. c #F5EFC1",
"'. c #F5EDC2",
"]. c #F1EEC9",
"[. c #F3F2C0",
"{. c #F3F3C0",
"}. c #F6F0C1",
"|. c #F4F3C0",
" X c #F5F2C1",
".X c #F6F0C2",
"XX c #F4F4C0",
"oX c #F5F4C0",
"OX c #F4F4C1",
"+X c #F5F4C1",
"@X c #F5F5C1",
"#X c #F6F5C0",
"$X c #F6F5C1",
"%X c #F7F6C0",
"&X c #F6F6C1",
"*X c #F7F6C1",
"=X c #F7F7C1",
"-X c #F7F7C2",
";X c #F8F2C2",
":X c #F8F5C1",
">X c #F9F5C1",
",X c #F8F7C1",
"<X c #F8F7C2",
"1X c #F8F8C1",
"2X c #F8F8C2",
"3X c #F9F8C2",
"4X c #FAF9C2",
"5X c #FAFAC2",
"6X c #FBFBC2",
"7X c #F3F1CA",
"8X c #F5F3CA",
"9X c #E9E3DB",
"0X c #EAE4DB",
"qX c #EBE6DB",
"wX c None",
/* pixels */
"wXwXwXwXwXwXwXwXwXwXwXwXwXwXwXwX, , , , , , wXwXwXwXwXwXwXwXwXwX",
"wXwXwXwXwXwXwXwXwXwXwXwXwXwXwXwXp F F G G a wXwXwXwXwXwXwXwXwXwX",
"wXwXwXwXwXwXwXwXwXwX, , , * # y  .>.:.:.,...y + wXwXwXwXwXwXwXwX",
"wXwXwXwXwXwXwXwXwXwXs F F f s ( g.>XU.K.P.1./ y wXwXwXwXwXwXwXwX",
"wXwXwXwXwXwXwXwX, s  .>.-.%.%.d.A.L.B.b.n.M.1...a , wXwXwXwXwXwX",
"wXwXwXwXwXwXwXwX, F >.5X3X*X*X&XOXF.x.#.#.m.Y.6.G , wXwXwXwXwXwX",
"wXwXwXwXwXwXwXwX, F -.3X,X+X+X@XOXF.x.#.#.m.Y.6.G , wXwXwXwXwXwX",
"wXwXwXwXwXwXwXwX, F *.*X+X[.[.{.{.H.N.c.v.z.2.X.d , wXwXwXwXwXwX",
"wXwXwXwXwXwXwXwX, F *.*X+X[.[.[.[.I.H.G.J.<./ i wXwXwXwXwXwXwXwX",
"wXwXwXwXwXwXwXwX- f &.=X*X+X|.[.[.[.{.&X-X=.s & wXwXwXwXwXwXwXwX",
"wXwXwXwXwXwX6 2 = s *.,X<X$X|.[.[.[.{.@X=X-.h ; 3 6 wXwXwXwXwXwX",
"wXwXwXwXwXwX5 8 w ) g.Z.r.w.V.|.|.[.[.+X*X-.F 2 4 6 wXwXwXwXwXwX",
"wXwXwXwXwXwX3 e { j.D.e.E E w.$X+X[.[.+X*X=.F < wXwXwXwXwXwXwXwX",
"wXwXwXwXwXwX, G 3.6X3Xw.E E w.$XoX[.[.+X*X=.F < wXwXwXwXwXwXwXwX",
"wXwXwXwXwXwX, F ;.3X*XV.w.w.C.XX|.[.[.+X*X-.F 2 4 6 wXwXwXwXwXwX",
"wXwXwXwXwXwX, F -.3X*X$X,X:X.X'.'.`. X=X3X>.G 2 4 6 wXwXwXwXwXwX",
"wXwXwXwXwXwX, F >.5X1X&X,X;X_.).).(.}.1X5X>.F < wXwXwXwXwXwXwXwX",
"wXwXwXwXwXwX, p | 5.u.p.a.q.8.@.@.7.0.t.4. .s , wXwXwXwXwXwXwXwX",
"wXwXwXwXwXwXwXwXu J U [ [ ] ' _ _ ' ` I H t wXwXwXwXwXwXwXwXwXwX",
"wXwXwXwXwXwXwXwX0 q l V N m m m n S T R A k wXwXwXwXwXwXwXwXwXwX",
"wXwXwXwXwXwXwXwX. P L B M m m b j Y +.9.Q.R.c 1 wXwXwXwXwXwXwXwX",
"wXwXwXwXwXwXwXwXO $.K C Y [ ~ ! Q o.l.8XqXW.v 1 wXwXwXwXwXwXwXwX",
"wXwXwXwXwXwXwXwXo X D Z O.h.f.i.i.k.S.7X0XW.v 1 wXwXwXwXwXwXwXwX",
"wXwXwXwXwXwXwXwXo   9 g >.4X1X$X$X#XoX^.~.E.x 1 wXwXwXwXwXwXwXwX",
"wXwXwXwXwXwXwXwXwXwX7 h -.1X*XoXoX$X&Xy.^ k wXwXwXwXwXwXwXwXwXwX",
"wXwXwXwXwXwXwXwXwXwX: F -.2X$X[.[.$X2X*.s $ wXwXwXwXwXwXwXwXwXwX",
"wXwXwXwXwXwXwXwXwXwX> F >.4X%XT.T.%X4X-.f % wXwXwXwXwXwXwXwXwXwX",
"wXwXwXwXwXwXwXwXwXwX, p } s./.].]./.s.} p , wXwXwXwXwXwXwXwXwXwX",
"wXwXwXwXwXwXwXwXwXwXwXwXr W !.9X9X!.W r wXwXwXwXwXwXwXwXwXwXwXwX",
"wXwXwXwXwXwXwXwXwXwXwXwX@ k R.W.W.R.k @ wXwXwXwXwXwXwXwXwXwXwXwX",
"wXwXwXwXwXwXwXwXwXwXwXwXwXwXz v v z wXwXwXwXwXwXwXwXwXwXwXwXwXwX",
"wXwXwXwXwXwXwXwXwXwXwXwXwXwX1 1 1 1 wXwXwXwXwXwXwXwXwXwXwXwXwXwX"
};
