/* XPM */
static char *result[] = {
/* columns rows colors chars-per-pixel */
"32 32 76 1 ",
"  c #86565B",
". c #88585B",
"X c #8A595A",
"o c #895A5B",
"O c #8A5A5A",
"+ c #8B5A5B",
"@ c #8C5B5B",
"# c #8B5B5C",
"$ c #916159",
"% c #936359",
"& c #94645A",
"* c #97675A",
"= c #A27057",
"- c #A37157",
"; c #A57456",
": c #A67456",
"> c #A77456",
", c #A67457",
"< c #A77657",
"1 c #A87555",
"2 c #A87657",
"3 c #AA7757",
"4 c #A47358",
"5 c #A5785F",
"6 c #AE7F5E",
"7 c #9D7160",
"8 c #9E7060",
"9 c #A07661",
"0 c #A37660",
"q c #A17662",
"w c #A27663",
"e c #A27763",
"r c #A87962",
"t c #AB7C62",
"y c #AF805E",
"u c #B0815D",
"i c #B1825D",
"p c #BA8864",
"a c #BC8965",
"s c #BE8B65",
"d c #BF8B65",
"f c #BA9069",
"g c #BC9169",
"h c #BC9269",
"j c #BD9269",
"k c #BE9368",
"l c #BF9368",
"z c #BD936A",
"x c #BE936A",
"c c #BF9468",
"v c #BE946A",
"b c #C18D65",
"n c #C1956A",
"m c #C2966A",
"M c #C3966A",
"N c #C3996B",
"B c #C3996C",
"V c #C39A6C",
"C c #C4996C",
"Z c #C49A6C",
"A c #C49B6C",
"S c #C49A6D",
"D c #C69B6C",
"F c #C59C6D",
"G c #C69C6C",
"H c #C89E6D",
"J c #C99F6E",
"K c #C99F6F",
"L c #CA9F6F",
"P c #CCA170",
"I c #CDA270",
"U c #D3A674",
"Y c #D4A775",
"T c #D5A775",
"R c #D6A876",
"E c None",
/* pixels */
"EE.@ EEEEEEEEEEEEEEEEEEEEEE @.EE",
"EEq8eEEEEEEEEEEEEEEEEEEEEEEe8qEE",
"FNzfvVFZZZZZZZZZZZZZZZZZAFVvfzNF",
"RUPHIYRTTTTTTTTTTTTTTTTTTRYIHPUR",
"LKJHJKLKKKKKKKKKKKKKKKKKKLKJHJKL",
"MnjfjnmmmmmmmmmmmmmmmmmmmMnjfjnM",
"bpr7tabdssssssssssssssssdbat7rpb",
"1=$o%-1:>>>>;>;;;>>;>>;;:1-%o$=1",
"EEX+OEEEEEEEEEEEEEEEEEEEEEEO+XEE",
"EE98wEEEEEEEEEEEEEEEEEEEEEEw89EE",
"DChfxVGSAAAAAAAAAAAAAAAASDVxfhBD",
"RUPHIYRTTTTTTTTTTTTTTTTTTRYIHPUR",
"LKJHJKLKKKKKKKKKKKKKKKKKKLKJHJKL",
"MnjfjnmmmmmmmmmmmmmmmmmmmMnjfjnM",
"bpr7tabdssssssssssssssssdbat7rpb",
"1=$o%-1:>>>>;>;;;>>;>>;;:1-%o$=1",
"EEX+OEEEEEEEEEEEEEEEEEEEEEEO+XEE",
"EE98wEEEEEEEEEEEEEEEEEEEEEEw89EE",
"DChfxVGSAAAAAAAAAAAAAAAASDVxfhBD",
"RUPHIYRTTTTTTTTTTTTTTTTTTRYIHPUR",
"LKJHJKLKKKKKKKKKKKKKKKKKKLKJHJKL",
"MnjfjnmmmmmmmmmmmmmmmmmmmMnjfjnM",
"bpr7tabdssssssssssssssssdbat7rpb",
"1=$o%-1:>>>>;>;;;>>;>>;;:1-%o$=1",
"EEX+OEEEEEEEEEEEEEEEEEEEEEEO+XEE",
"EE98wEEEEEEEEEEEEEEEEEEEEEEw89EE",
"DChfxVGSAAAAAAAAAAAAAAAASDVxfhBD",
"RUPHIYRTTTTTTTTTTTTTTTTTTRYIHPUR",
"LKJHJKLKKKKKKKKKKKKKKKKKKLKJHJKL",
"ckgfhlcccccccccccccccccccclhfgkc",
"i6075yiuuuuuuuuuuuuuuuuuuiy5706i",
"34&#*,32222222222222222<23,*#&43"
};
