/* XPM */
static char *result[] = {
/* columns rows colors chars-per-pixel */
"32 32 174 2 ",
"   c #7BB6EE",
".  c #7DB9EB",
"X  c #7FB9EA",
"o  c #7FB8EB",
"O  c #7FBAEA",
"+  c #7FB8ED",
"@  c #6EA8FF",
"#  c #6FA9FF",
"$  c #6FAAFF",
"%  c #75AFF9",
"&  c #77AFFA",
"*  c #76AEFB",
"=  c #70A8FF",
"-  c #71A9FF",
";  c #71AAFF",
":  c #72AAFF",
">  c #75ADFC",
",  c #74AEFC",
"<  c #77B1F6",
"1  c #77B1F7",
"2  c #79B3F2",
"3  c #7BB5F0",
"4  c #79B4F3",
"5  c #7AB4F2",
"6  c #7FB7F1",
"7  c #7DB4F3",
"8  c #7DB5F3",
"9  c #7EB5F2",
"0  c #7EB5F3",
"q  c #7EB6F2",
"w  c #79B3F4",
"e  c #79B2F5",
"r  c #7AB3F6",
"t  c #7BB2F7",
"y  c #7BB4F6",
"u  c #77B0FA",
"i  c #78B0F9",
"p  c #AADFBF",
"a  c #83BFE3",
"s  c #84BFE2",
"d  c #82BDE4",
"f  c #83BEE4",
"g  c #82BCE6",
"h  c #85BFE4",
"j  c #87BEE7",
"k  c #88BFE6",
"l  c #81BCE8",
"z  c #86BEE8",
"x  c #87BEE8",
"c  c #85BCEB",
"v  c #86BDEA",
"b  c #83BAEC",
"n  c #83BAED",
"m  c #82B8EF",
"M  c #82BAEE",
"N  c #83BAEE",
"B  c #84BBEC",
"V  c #88BDE8",
"C  c #88BEE8",
"Z  c #80B7F0",
"A  c #80B8F0",
"S  c #8FCECD",
"D  c #8FCDCF",
"F  c #91CFCB",
"G  c #90CFCC",
"H  c #91CFCC",
"J  c #90CFCD",
"K  c #90CECE",
"L  c #93CFCF",
"P  c #96D5C3",
"I  c #93D3C5",
"U  c #93D3C6",
"Y  c #93D2C7",
"T  c #94D3C5",
"R  c #95D3C5",
"E  c #94D3C6",
"W  c #94D2C7",
"Q  c #94D3C7",
"!  c #94D4C4",
"~  c #95D4C4",
"^  c #95D5C4",
"/  c #94D4C5",
"(  c #95D4C5",
")  c #96D5C4",
"_  c #9BD7C3",
"`  c #9AD5C5",
"'  c #9AD6C4",
"]  c #9BD6C4",
"[  c #9BD7C4",
"{  c #9AD6C5",
"}  c #99D5C6",
"|  c #99D4C7",
" . c #99D5C7",
".. c #9CD8C2",
"X. c #91D1C9",
"o. c #92D1C9",
"O. c #93D1C9",
"+. c #92D2C9",
"@. c #93D2C9",
"#. c #91D1CA",
"$. c #90D0CB",
"%. c #91D0CB",
"&. c #92D0CA",
"*. c #92D1CA",
"=. c #92D0CB",
"-. c #97D3C9",
";. c #96D2CB",
":. c #91D0CC",
">. c #98D3C8",
",. c #9FD6CB",
"<. c #9DD3CF",
"1. c #9FD5CD",
"2. c #9DD4CE",
"3. c #9ED4CE",
"4. c #8CCBD3",
"5. c #8DCBD3",
"6. c #8ECBD2",
"7. c #8ECCD0",
"8. c #8FCCD0",
"9. c #8ECCD1",
"0. c #8BCAD4",
"q. c #8BC9D6",
"w. c #8CC9D5",
"e. c #8CCAD4",
"r. c #8DC9D7",
"t. c #8EC9D7",
"y. c #85C2DF",
"u. c #86C2DF",
"i. c #87C4DE",
"p. c #89C6D9",
"a. c #8BC7DA",
"s. c #8BC6DB",
"d. c #88C4DD",
"f. c #89C5DE",
"g. c #88C4DF",
"h. c #8AC5DE",
"j. c #8FC6DF",
"k. c #91CDD1",
"l. c #92CED0",
"z. c #91CDD2",
"x. c #98CFD3",
"c. c #99CFD3",
"v. c #90C7DF",
"b. c #93CADA",
"n. c #94CBD9",
"m. c #92C8DC",
"M. c #9AD1D1",
"N. c #9BD1D1",
"B. c #9BD2D1",
"V. c #99D0D3",
"C. c #9AD1D2",
"Z. c #9CD3D0",
"A. c #A5DBC3",
"S. c #A6DCC1",
"D. c #A6DDC2",
"F. c #A3D9C6",
"G. c #A2D8C7",
"H. c #A2D9C7",
"J. c #A6D9C7",
"K. c #A4DAC6",
"L. c #A0D6CA",
"P. c #A3D5CC",
"I. c #A1D8C9",
"U. c #A2D8C8",
"Y. c #85C1E0",
"T. c #85C1E1",
"R. c #87C2E1",
"E. c #86C1E3",
"W. c #88C3E0",
"Q. c #8BC4E2",
"!. c #8DC5E1",
"~. c #8CC4E2",
"^. c #8BC2E4",
"/. c #90C6E0",
/* pixels */
"P.:.~ P P P P P P P P P P *.C 0 q.P P P P P P P P P P P P J.t V ",
"j.7.~ P P P P P P P P P P ~ F.G.T P P P P P P P P P P P P S.x.M.",
"r.O.P P P P P P ! ! ! P P P ....P P P P P P P P ! +.$.*.( ..] { ",
"! P P P P P P P ......P P P ! ! P P P P P P P P { E.4   8.! ! ! ",
"P P P P P P P i.j b 8 . P P P P P P P P P P P P H.: ; % u.P P P ",
"P P P P P P P 2 - , r a P P P P P P P P P P P P D.^.v Y.Y P P P ",
"P P P P P P P P ......P P P P P P P P P P P P P ......P P P P P ",
"P P P P P P P P ! ! ! P P P P P P P P P P P P P ! ! ! P P P P P ",
"! / / / P P P P P P P P P P P ) G 0.4.=.~ P P P P P P P P P P ! ",
"-.l.k.L @.P P P P P P P P P P &.R.e w s *.P P P P P P P P P P g.",
"B # @ = f E P P P P P P P P P W !.* i g W P P P P P P P P P P k ",
"/.M A c e.P P P P P P P P P P P 3.v.b.D ) P P P P P P P P P P L.",
"........P P P P P P P P P P P P ' >. .^ P P P P P P P P P P P _ ",
"! ! ! ! P P P P P P P P P P P P ! ! ! P P P P P P P P P P P P ! ",
"P P P P P P P P P P ! ! ! ! P P P P P P P P P P P %.y.O . T.J P ",
"P P P P P P P P P P ' >.;.>.( P P P P P P P P P *.W.h.k.t.l q.P ",
"P P P P P P P P P P C.y # 7 6.P P P P P P P P P K n > u & a *.P ",
"P P P P P P P P P P <.z 6 B 6.) P P P P P P P P ( U.<.M.B.=.) P ",
"P P P P P ! ! P P P ........P P P P P P P I o.W ~ .._ _ _ ) P P ",
"P P P P P { z.5.P P ! ! ! ! P P P P P P ) L + X K ! ! ! ! P P P ",
"P P P P ~ Z.$ < :.P P P P P P P P P P P R c.Z d K P P P P P P P ",
"P P P P P I.7 3 W P P P P P P P P P P P P I.Q.9.P P P P P P P P ",
"! P P P P ....P P P P P P P / #.U P P P P ....P P P P P P P ! / ",
"W.) P P P ! ! P P P P P P P a.h f.E P P P ! ! P P P P P P P ` s.",
"M ~ P P P P P P X.S $.~ P P c x q H ) P P P P ! ! ! P P P P A.B ",
"C.P P P P P P P W.1 5 p.E P V.n.m.O.P P P P P _ | } ( ) P P p <.",
"[ P P P P P P P ~.m 9 d.Q P [ ;.} P P P P P ^ ,.v k w.F ( P ....",
"! P P P P P P P K.2.1.@.) P ! ! ! P P P P P ( N.N n o u.O.P ! ! ",
"P P P P P P P P ..[ _ P P P P P P P P P P P P ......P P P P P P ",
"P P P P P P P P ! ! ! P P P P P P P P P P P P ! ! ! P P P P P P ",
"P P P P P P P P P P P P P P P P P P P P P P P P P P P P P P P P ",
"P P P P P P P P P P P P P P P P P P P P P P P P P P P P P P P P "
};
