/* XPM */
static char *result[] = {
/* columns rows colors chars-per-pixel */
"32 32 168 2 ",
"   c #76BBEE",
".  c #77BCED",
"X  c #7BBEE8",
"o  c #7BBFE8",
"O  c #78BDEB",
"+  c #78BCEC",
"@  c #78BCEE",
"#  c #7FBDEE",
"$  c #7EBDEF",
"%  c #7FBEEE",
"&  c #62A5FF",
"*  c #63A6FF",
"=  c #64A8FF",
"-  c #67AAFF",
";  c #67ABFF",
":  c #68ACFF",
">  c #69ACFF",
",  c #69ADFF",
"<  c #6BACFF",
"1  c #6AAFFE",
"2  c #6BAEFF",
"3  c #6CAEFE",
"4  c #6CAEFF",
"5  c #6DAEFF",
"6  c #6FAFFE",
"7  c #6CB1FC",
"8  c #6DB1FC",
"9  c #6CB1FD",
"0  c #6EB1FE",
"q  c #76B7F7",
"w  c #78B7F4",
"e  c #78B7F5",
"r  c #75B8F1",
"t  c #76B9F0",
"y  c #79B8F3",
"u  c #7AB9F3",
"i  c #7BBAF2",
"p  c #7BBCF1",
"a  c #7CBCF1",
"s  c #79B8F4",
"d  c #79B8F5",
"f  c #7AB8F4",
"g  c #7AB9F4",
"h  c #70B3F8",
"j  c #71B4F8",
"k  c #74B5F9",
"l  c #76B5F8",
"z  c #71B2FD",
"x  c #7FC5E1",
"c  c #7DC1E5",
"v  c #A7E3BC",
"b  c #81BFEC",
"n  c #8ED6C4",
"m  c #8FD6C4",
"M  c #8FD7C4",
"N  c #8DD5C6",
"B  c #8DD4C7",
"V  c #8DD5C7",
"C  c #8ED5C6",
"Z  c #8ED5C7",
"A  c #8ED6C6",
"S  c #8FD6C6",
"D  c #8CD3C9",
"F  c #8DD3C9",
"G  c #8CD2CB",
"H  c #8CD3CB",
"J  c #8DD3CB",
"K  c #8DD4C8",
"L  c #8DD4C9",
"P  c #8ED4C8",
"I  c #8AD1CD",
"U  c #89D2CC",
"Y  c #8BD2CD",
"T  c #8AD1CE",
"R  c #8BD1CE",
"E  c #8AD0CF",
"W  c #8CD2CC",
"Q  c #8FD2CE",
"!  c #8ED3CE",
"~  c #91D7C3",
"^  c #91D7C4",
"/  c #90D5C6",
"(  c #93D7C7",
")  c #94D7C7",
"_  c #97DBC1",
"`  c #95D9C3",
"'  c #95D9C4",
"]  c #94D8C5",
"[  c #96D8C4",
"{  c #9EDBC7",
"}  c #9FDBC7",
"|  c #92D5C9",
" . c #92D6C8",
".. c #93D7C8",
"X. c #91D5CA",
"o. c #92D5CA",
"O. c #90D3CE",
"+. c #91D4CC",
"@. c #98D5CF",
"#. c #98D6CF",
"$. c #99D6CF",
"%. c #9BD7CE",
"&. c #9EDBC8",
"*. c #9DD9CA",
"=. c #9CD8CC",
"-. c #87CED2",
";. c #86CED3",
":. c #85CAD7",
">. c #85CBD7",
",. c #86CBD6",
"<. c #86CCD5",
"1. c #89CFD1",
"2. c #8ACDD5",
"3. c #8BCFD4",
"4. c #89CCD7",
"5. c #8ACDD6",
"6. c #80C6DD",
"7. c #82C7DC",
"8. c #80C6DF",
"9. c #83C9DA",
"0. c #83C8DB",
"q. c #84C9D9",
"w. c #84C9DA",
"e. c #81C8DC",
"r. c #83C8DC",
"t. c #85C8DC",
"y. c #88CBD8",
"u. c #8FCDDA",
"i. c #8ECBDD",
"p. c #8DCADE",
"a. c #91CED9",
"s. c #92CED8",
"d. c #90CDDA",
"f. c #90CEDA",
"g. c #88D0D1",
"h. c #8BD0D3",
"j. c #8DD1D1",
"k. c #8CD0D2",
"l. c #8CD0D3",
"z. c #95D3D3",
"x. c #97D4D1",
"c. c #96D4D3",
"v. c #93D1D5",
"b. c #93D1D7",
"n. c #94D1D5",
"m. c #94D2D5",
"M. c #94D1D7",
"N. c #94D2D6",
"B. c #98D5D1",
"V. c #91D0D9",
"C. c #A1DEC4",
"Z. c #A0DDC6",
"A. c #A4E1C0",
"S. c #83C5E1",
"D. c #85C2E7",
"F. c #81C4E5",
"G. c #87C6E4",
"H. c #87C4E6",
"J. c #86C5E7",
"K. c #89C7E4",
"L. c #8AC9E1",
"P. c #89C8E2",
"I. c #89C8E3",
"U. c #83C2E8",
"Y. c #81C1EA",
"T. c #80C0EB",
"R. c #82C1EA",
"E. c #84C1EA",
/* pixels */
"~ ~ ~ ~ ~ ~ ~ ~ ~ ~ ~ ^ ~ K.g f f o S ~ ~ ~ ~ ~ ~ ~ ~ ~ ~ ^ E.H.",
"~ ~ ~ ~ ~ ~ ~ ~ ~ ~ ~ , : w T.G.i.g.~ ~ ~ ~ ~ ~ ~ ~ ~ ~ ~ + * z.",
"~ ~ ~ ~ ~ ~ ~ n n n ~ 1.c @ j 4 ; h ~ ~ ~ ~ ~ n n n ~ ~ ~ 1 S._ ",
"~ ~ ~ ~ ~ ~ ~ ) k.+.m ~ ~ n n n n ~ ~ ~ ~ / K o.O.h.w.,.~ ~ n n ",
"~ ~ ~ ~ ~ ~ ~ } a z q.m ~ ~ ~ ~ ~ ~ ~ ~ ~ 2 & = - 5 8 r ~ ~ ~ ~ ",
"~ ~ ~ ~ ~ ~ ~ J.I.M.R ~ ~ ~ ~ ~ ~ ~ ~ ~ ~ ~ ~ v v v ~ ~ ~ ~ ~ ~ ",
"~ ~ ~ ~ ~ ~ ~ _ _ _ ~ ~ ~ ~ ~ ~ ~ ~ ~ ~ ~ ~ ~ _ _ _ ~ ~ ~ ~ ~ ~ ",
"~ ~ ~ ~ ~ ~ ~ n n n ~ ~ ~ ~ ~ ~ ~ ~ ~ ~ ~ ~ ~ n n n ~ ~ ~ ~ ~ ~ ",
"n n n ~ ~ ~ ~ ~ ~ ~ ~ ~ ~ ~ ~ n n n n n ~ ~ ~ ~ ~ ~ ~ ~ ~ ~ ~ ~ ",
"'  .| G S ~ ~ ~ ~ ~ ~ ~ ~ ~ ~ _ _ _ _ _ ~ ~ ~ ~ ~ ~ ~ ~ ~ ~ ~ ~ ",
"&.n.f.7.H ~ ~ ~ ~ ~ ~ ~ ~ ~ 7 > > > < l m ~ ~ ~ ~ ~ ~ ~ ~ ~ ~ ~ ",
"Z.@.x.,.K ~ ~ ~ ~ ~ ~ ~ ~ ~ ~ d.a s e d r.Z ~ ~ ~ ~ ~ ~ ~ ~ ~ ~ ",
"_ _ _ ~ ~ ~ ~ ~ ~ ~ ~ ~ ~ ~ ~ _ _ _ _ _ ~ ~ ~ ~ ~ ~ ~ ~ ~ ~ ~ ~ ",
"n n n ~ ~ ~ ~ ~ ~ ~ ~ ~ ~ ~ ~ n n n n n ~ ~ ~ ~ ~ ~ ~ ~ ~ ~ ~ ~ ",
"~ ~ ~ ~ ~ ~ ~ ~ ~ n A V N ^ ~ ~ ~ ~ ~ ~ ~ ~ ~ ~ ~ ~ n n n N m ~ ",
"~ ~ ~ ~ ~ ~ ~ ~ ~ [ Q 4.5.Y ~ ~ ~ ~ ~ ~ ~ ~ ~ ~ ~ ~ ' ( X.l.<.K ",
"~ ~ ~ ~ ~ ~ ~ ~ ~ Z.b.P.p.-.~ ~ ~ ~ ~ ~ ~ ~ ~ ~ ~ S u.0 6 k x P ",
"~ ~ ~ ~ ~ ~ ~ ~ ~ U.p $ $.~ ~ ~ ~ ~ ~ ~ ~ ~ ~ ~ ~ ~ A.=.} C.m ~ ",
"~ ~ ~ ~ n n ~ ~ ~ _ _ _ _ ~ ~ ~ ~ ~ ~ M B D J W S ~ _ ` _ _ ~ ~ ",
"~ ~ ~ ~ _ _ ~ ~ ~ n n n n ~ ~ ~ ~ ~ ~ T 5.y.e.e.K ~ n n n n ~ ~ ",
"~ ~ ~ I B.c.g.~ ~ ~ ~ ~ ~ ~ ~ ~ ~ ~ ~ ,.R.Y.O X K ~ ~ ~ ~ ~ ~ ~ ",
"~ ~ ~ 3 = ; 9 ~ ~ ~ ~ ~ ~ ~ ~ ~ ~ ~ ~ m N.a.0.:.^ ~ ~ ~ ~ ~ ~ ~ ",
"~ ~ ~ ~ _ _ ~ ~ ~ ~ ~ ~ m D U U H Z ^ ~ .. .L Z ~ ~ ~ ~ ~ n n n ",
"~ ~ ~ ~ n n ~ ~ ~ ~ ~ ~ K 2.t.t.6.-.C ~ n n ~ ~ ~ ~ ~ ^ ~ ( ! k.",
"~ ~ ~ ~ ~ ~ ~ n n n ~ ~ K #.v.s.6.;.Z ~ ~ ~ ~ ~ n n V T Z %.V.a.",
"~ ~ ~ ~ ~ ~ ~ ' ' ' ^ ~ H L.i % . 8.F ~ ~ ~ ~ ~ ] j.F.  E } =.{ ",
"~ ~ ~ ~ ~ ~ K y q u q./ ~ _ _ _ ~ ~ ~ ~ ~ ~ ~ ~ Z.P.g 9.S _ _ _ ",
"~ ~ ~ ~ ~ ~ ~ D.$ # t >.~ n n n ~ ~ ~ ~ ~ ~ ~ ~ *.b m.K ^ n n n ",
"~ ~ ~ ~ ~ ~ ~ _ _ _ ~ ~ ~ ~ ~ ~ ~ ~ ~ ~ ~ ~ ~ ~ 3.O.' ~ ~ ~ ~ ~ ",
"~ ~ ~ ~ ~ ~ ~ n n n ~ ~ ~ ~ ~ ~ ~ ~ ~ ~ ~ ~ ~ ~ n n n ~ ~ ~ ~ ~ ",
"~ ~ ~ ~ ~ ~ ~ ~ ~ ~ ~ ~ ~ ~ ~ ~ ~ ~ ~ ~ ~ ~ ~ ~ ~ ~ ~ ~ ~ ~ ~ ~ ",
"~ ~ ~ ~ ~ ~ ~ ~ ~ ~ ~ ~ ~ ~ ~ ~ ~ ~ ~ ~ ~ ~ ~ ~ ~ ~ ~ ~ ~ ~ ~ ~ "
};
